<mxfile host="app.diagrams.net" agent="Mozilla/5.0 (Macintosh; Intel Mac OS X 10_15_7) AppleWebKit/537.36 (KHTML, like Gecko) Chrome/141.0.0.0 Safari/537.36 Edg/141.0.0.0" version="28.2.8">
  <diagram name="第 1 页" id="2W-iYhQjYEr0PKStyrm0">
    <mxGraphModel dx="844" dy="502" grid="0" gridSize="10" guides="1" tooltips="1" connect="1" arrows="1" fold="1" page="1" pageScale="1" pageWidth="827" pageHeight="1169" math="1" shadow="0">
      <root>
        <mxCell id="0" />
        <mxCell id="1" parent="0" />
        <mxCell id="EYOUu9byK4Gg7GPkOaRl-1" value="&lt;b&gt;&lt;font&gt;Alt Fragment&lt;/font&gt;&lt;/b&gt;" style="shape=umlFrame;whiteSpace=wrap;html=1;pointerEvents=0;width=130;height=30;align=left;strokeWidth=1.5;" vertex="1" parent="1">
          <mxGeometry x="261" y="290" width="360" height="180" as="geometry" />
        </mxCell>
        <mxCell id="EYOUu9byK4Gg7GPkOaRl-18" value="" style="group" vertex="1" connectable="0" parent="1">
          <mxGeometry x="292" y="326" width="28" height="134" as="geometry" />
        </mxCell>
        <mxCell id="EYOUu9byK4Gg7GPkOaRl-6" value="" style="endArrow=none;html=1;rounded=0;strokeWidth=1.5;" edge="1" parent="EYOUu9byK4Gg7GPkOaRl-18" source="EYOUu9byK4Gg7GPkOaRl-4">
          <mxGeometry width="50" height="50" relative="1" as="geometry">
            <mxPoint x="14" y="102" as="sourcePoint" />
            <mxPoint x="14" y="14" as="targetPoint" />
          </mxGeometry>
        </mxCell>
        <mxCell id="EYOUu9byK4Gg7GPkOaRl-5" value="a" style="html=1;whiteSpace=wrap;strokeWidth=1.5;" vertex="1" parent="EYOUu9byK4Gg7GPkOaRl-18">
          <mxGeometry width="28" height="14" as="geometry" />
        </mxCell>
        <mxCell id="EYOUu9byK4Gg7GPkOaRl-7" value="" style="endArrow=none;html=1;rounded=0;strokeWidth=1.5;" edge="1" parent="EYOUu9byK4Gg7GPkOaRl-18">
          <mxGeometry width="50" height="50" relative="1" as="geometry">
            <mxPoint x="13" y="95" as="sourcePoint" />
            <mxPoint x="13" y="126.99999999999989" as="targetPoint" />
          </mxGeometry>
        </mxCell>
        <mxCell id="EYOUu9byK4Gg7GPkOaRl-4" value="" style="html=1;points=[[0,0,0,0,5],[0,1,0,0,-5],[1,0,0,0,5],[1,1,0,0,-5]];perimeter=orthogonalPerimeter;outlineConnect=0;targetShapes=umlLifeline;portConstraint=eastwest;newEdgeStyle={&quot;curved&quot;:0,&quot;rounded&quot;:0};strokeWidth=1.5;" vertex="1" parent="EYOUu9byK4Gg7GPkOaRl-18">
          <mxGeometry x="7" y="30" width="14" height="104" as="geometry" />
        </mxCell>
        <mxCell id="EYOUu9byK4Gg7GPkOaRl-19" value="" style="group" vertex="1" connectable="0" parent="1">
          <mxGeometry x="382" y="327" width="28" height="134" as="geometry" />
        </mxCell>
        <mxCell id="EYOUu9byK4Gg7GPkOaRl-14" value="" style="endArrow=none;html=1;rounded=0;strokeWidth=1.5;" edge="1" parent="EYOUu9byK4Gg7GPkOaRl-19" source="EYOUu9byK4Gg7GPkOaRl-17">
          <mxGeometry width="50" height="50" relative="1" as="geometry">
            <mxPoint x="14" y="102" as="sourcePoint" />
            <mxPoint x="14" y="14" as="targetPoint" />
          </mxGeometry>
        </mxCell>
        <mxCell id="EYOUu9byK4Gg7GPkOaRl-15" value="b" style="html=1;whiteSpace=wrap;strokeWidth=1.5;" vertex="1" parent="EYOUu9byK4Gg7GPkOaRl-19">
          <mxGeometry width="28" height="14" as="geometry" />
        </mxCell>
        <mxCell id="EYOUu9byK4Gg7GPkOaRl-16" value="" style="endArrow=none;html=1;rounded=0;strokeWidth=1.5;" edge="1" parent="EYOUu9byK4Gg7GPkOaRl-19">
          <mxGeometry width="50" height="50" relative="1" as="geometry">
            <mxPoint x="13" y="95" as="sourcePoint" />
            <mxPoint x="13" y="127" as="targetPoint" />
          </mxGeometry>
        </mxCell>
        <mxCell id="EYOUu9byK4Gg7GPkOaRl-17" value="" style="html=1;points=[[0,0,0,0,5],[0,1,0,0,-5],[1,0,0,0,5],[1,1,0,0,-5]];perimeter=orthogonalPerimeter;outlineConnect=0;targetShapes=umlLifeline;portConstraint=eastwest;newEdgeStyle={&quot;curved&quot;:0,&quot;rounded&quot;:0};strokeWidth=1.5;" vertex="1" parent="EYOUu9byK4Gg7GPkOaRl-19">
          <mxGeometry x="7" y="30" width="14" height="104" as="geometry" />
        </mxCell>
        <mxCell id="EYOUu9byK4Gg7GPkOaRl-20" value="" style="group" vertex="1" connectable="0" parent="1">
          <mxGeometry x="480" y="326" width="28" height="134" as="geometry" />
        </mxCell>
        <mxCell id="EYOUu9byK4Gg7GPkOaRl-21" value="" style="endArrow=none;html=1;rounded=0;strokeWidth=1.5;" edge="1" parent="EYOUu9byK4Gg7GPkOaRl-20" source="EYOUu9byK4Gg7GPkOaRl-24">
          <mxGeometry width="50" height="50" relative="1" as="geometry">
            <mxPoint x="14" y="102" as="sourcePoint" />
            <mxPoint x="14" y="14" as="targetPoint" />
          </mxGeometry>
        </mxCell>
        <mxCell id="EYOUu9byK4Gg7GPkOaRl-22" value="c" style="html=1;whiteSpace=wrap;strokeWidth=1.5;" vertex="1" parent="EYOUu9byK4Gg7GPkOaRl-20">
          <mxGeometry width="28" height="14" as="geometry" />
        </mxCell>
        <mxCell id="EYOUu9byK4Gg7GPkOaRl-23" value="" style="endArrow=none;html=1;rounded=0;strokeWidth=1.5;" edge="1" parent="EYOUu9byK4Gg7GPkOaRl-20" target="EYOUu9byK4Gg7GPkOaRl-24">
          <mxGeometry width="50" height="50" relative="1" as="geometry">
            <mxPoint x="14" y="102" as="sourcePoint" />
            <mxPoint x="14" y="14" as="targetPoint" />
          </mxGeometry>
        </mxCell>
        <mxCell id="EYOUu9byK4Gg7GPkOaRl-24" value="" style="html=1;points=[[0,0,0,0,5],[0,1,0,0,-5],[1,0,0,0,5],[1,1,0,0,-5]];perimeter=orthogonalPerimeter;outlineConnect=0;targetShapes=umlLifeline;portConstraint=eastwest;newEdgeStyle={&quot;curved&quot;:0,&quot;rounded&quot;:0};strokeWidth=1.5;" vertex="1" parent="EYOUu9byK4Gg7GPkOaRl-20">
          <mxGeometry x="7" y="30" width="14" height="104" as="geometry" />
        </mxCell>
        <mxCell id="EYOUu9byK4Gg7GPkOaRl-25" value="" style="group" vertex="1" connectable="0" parent="1">
          <mxGeometry x="559" y="326" width="28" height="134" as="geometry" />
        </mxCell>
        <mxCell id="EYOUu9byK4Gg7GPkOaRl-26" value="" style="endArrow=none;html=1;rounded=0;strokeWidth=1.5;" edge="1" parent="EYOUu9byK4Gg7GPkOaRl-25" source="EYOUu9byK4Gg7GPkOaRl-29">
          <mxGeometry width="50" height="50" relative="1" as="geometry">
            <mxPoint x="14" y="102" as="sourcePoint" />
            <mxPoint x="14" y="14" as="targetPoint" />
          </mxGeometry>
        </mxCell>
        <mxCell id="EYOUu9byK4Gg7GPkOaRl-27" value="d" style="html=1;whiteSpace=wrap;strokeWidth=1.5;" vertex="1" parent="EYOUu9byK4Gg7GPkOaRl-25">
          <mxGeometry width="28" height="14" as="geometry" />
        </mxCell>
        <mxCell id="EYOUu9byK4Gg7GPkOaRl-28" value="" style="endArrow=none;html=1;rounded=0;strokeWidth=1.5;" edge="1" parent="EYOUu9byK4Gg7GPkOaRl-25" target="EYOUu9byK4Gg7GPkOaRl-29">
          <mxGeometry width="50" height="50" relative="1" as="geometry">
            <mxPoint x="14" y="102" as="sourcePoint" />
            <mxPoint x="14" y="14" as="targetPoint" />
          </mxGeometry>
        </mxCell>
        <mxCell id="EYOUu9byK4Gg7GPkOaRl-29" value="" style="html=1;points=[[0,0,0,0,5],[0,1,0,0,-5],[1,0,0,0,5],[1,1,0,0,-5]];perimeter=orthogonalPerimeter;outlineConnect=0;targetShapes=umlLifeline;portConstraint=eastwest;newEdgeStyle={&quot;curved&quot;:0,&quot;rounded&quot;:0};strokeWidth=1.5;" vertex="1" parent="EYOUu9byK4Gg7GPkOaRl-25">
          <mxGeometry x="7" y="30" width="14" height="104" as="geometry" />
        </mxCell>
        <mxCell id="EYOUu9byK4Gg7GPkOaRl-31" value="&lt;b&gt;&lt;font&gt;&amp;nbsp; Alt&lt;/font&gt;&lt;/b&gt;" style="shape=umlFrame;whiteSpace=wrap;html=1;pointerEvents=0;width=50;height=20;align=left;strokeWidth=1.5;" vertex="1" parent="1">
          <mxGeometry x="280" y="370" width="320" height="80" as="geometry" />
        </mxCell>
        <mxCell id="EYOUu9byK4Gg7GPkOaRl-32" value="" style="endArrow=classic;html=1;rounded=0;strokeWidth=1.5;" edge="1" parent="1">
          <mxGeometry width="50" height="50" relative="1" as="geometry">
            <mxPoint x="487" y="392" as="sourcePoint" />
            <mxPoint x="403" y="392" as="targetPoint" />
          </mxGeometry>
        </mxCell>
        <mxCell id="EYOUu9byK4Gg7GPkOaRl-33" value="&lt;svg xmlns=&quot;http://www.w3.org/2000/svg&quot; width=&quot;2.042ex&quot; height=&quot;1.339ex&quot; role=&quot;img&quot; viewBox=&quot;0 -442 902.6 592&quot; xmlns:xlink=&quot;http://www.w3.org/1999/xlink&quot; style=&quot;vertical-align: -0.339ex;&quot;&gt;&lt;defs&gt;&lt;path id=&quot;MJX-1-TEX-I-1D452&quot; d=&quot;M39 168Q39 225 58 272T107 350T174 402T244 433T307 442H310Q355 442 388 420T421 355Q421 265 310 237Q261 224 176 223Q139 223 138 221Q138 219 132 186T125 128Q125 81 146 54T209 26T302 45T394 111Q403 121 406 121Q410 121 419 112T429 98T420 82T390 55T344 24T281 -1T205 -11Q126 -11 83 42T39 168ZM373 353Q367 405 305 405Q272 405 244 391T199 357T170 316T154 280T149 261Q149 260 169 260Q282 260 327 284T373 353Z&quot;&gt;&lt;/path&gt;&lt;path id=&quot;MJX-1-TEX-N-31&quot; d=&quot;M213 578L200 573Q186 568 160 563T102 556H83V602H102Q149 604 189 617T245 641T273 663Q275 666 285 666Q294 666 302 660V361L303 61Q310 54 315 52T339 48T401 46H427V0H416Q395 3 257 3Q121 3 100 0H88V46H114Q136 46 152 46T177 47T193 50T201 52T207 57T213 61V578Z&quot;&gt;&lt;/path&gt;&lt;/defs&gt;&lt;g stroke=&quot;currentColor&quot; fill=&quot;currentColor&quot; stroke-width=&quot;0&quot; transform=&quot;scale(1,-1)&quot;&gt;&lt;g data-mml-node=&quot;math&quot;&gt;&lt;g data-mml-node=&quot;msub&quot;&gt;&lt;g data-mml-node=&quot;mi&quot;&gt;&lt;use data-c=&quot;1D452&quot; xlink:href=&quot;#MJX-1-TEX-I-1D452&quot;&gt;&lt;/use&gt;&lt;/g&gt;&lt;g data-mml-node=&quot;mn&quot; transform=&quot;translate(499,-150) scale(0.707)&quot;&gt;&lt;use data-c=&quot;31&quot; xlink:href=&quot;#MJX-1-TEX-N-31&quot;&gt;&lt;/use&gt;&lt;/g&gt;&lt;/g&gt;&lt;/g&gt;&lt;/g&gt;&lt;/svg&gt;" style="edgeLabel;html=1;align=center;verticalAlign=middle;resizable=0;points=[];fontSize=14;" vertex="1" connectable="0" parent="EYOUu9byK4Gg7GPkOaRl-32">
          <mxGeometry x="0.0805" relative="1" as="geometry">
            <mxPoint y="-12" as="offset" />
          </mxGeometry>
        </mxCell>
        <mxCell id="EYOUu9byK4Gg7GPkOaRl-35" value="" style="endArrow=classic;html=1;rounded=0;strokeWidth=1.5;" edge="1" parent="1">
          <mxGeometry width="50" height="50" relative="1" as="geometry">
            <mxPoint x="502.5" y="403" as="sourcePoint" />
            <mxPoint x="566.5" y="403.5" as="targetPoint" />
          </mxGeometry>
        </mxCell>
        <mxCell id="EYOUu9byK4Gg7GPkOaRl-37" value="&lt;font style=&quot;font-size: 14px;&quot;&gt;\(e_2\)&lt;/font&gt;" style="text;html=1;whiteSpace=wrap;strokeColor=none;fillColor=none;align=center;verticalAlign=middle;rounded=0;" vertex="1" parent="1">
          <mxGeometry x="510" y="379" width="49" height="21" as="geometry" />
        </mxCell>
        <mxCell id="EYOUu9byK4Gg7GPkOaRl-38" value="" style="endArrow=none;html=1;rounded=0;entryX=0.998;entryY=0.544;entryDx=0;entryDy=0;entryPerimeter=0;exitX=0;exitY=0.561;exitDx=0;exitDy=0;exitPerimeter=0;strokeWidth=1.5;" edge="1" parent="1" source="EYOUu9byK4Gg7GPkOaRl-31" target="EYOUu9byK4Gg7GPkOaRl-31">
          <mxGeometry width="50" height="50" relative="1" as="geometry">
            <mxPoint x="190" y="440" as="sourcePoint" />
            <mxPoint x="240" y="390" as="targetPoint" />
          </mxGeometry>
        </mxCell>
        <mxCell id="EYOUu9byK4Gg7GPkOaRl-39" value="" style="endArrow=classic;html=1;rounded=0;strokeWidth=1.5;" edge="1" parent="1">
          <mxGeometry width="50" height="50" relative="1" as="geometry">
            <mxPoint x="389" y="433" as="sourcePoint" />
            <mxPoint x="313" y="433" as="targetPoint" />
          </mxGeometry>
        </mxCell>
        <mxCell id="EYOUu9byK4Gg7GPkOaRl-41" value="&lt;font style=&quot;font-size: 14px;&quot;&gt;\(e_3\)&lt;/font&gt;" style="text;html=1;whiteSpace=wrap;strokeColor=none;fillColor=none;align=center;verticalAlign=middle;rounded=0;" vertex="1" parent="1">
          <mxGeometry x="329" y="413" width="49" height="21" as="geometry" />
        </mxCell>
        <mxCell id="EYOUu9byK4Gg7GPkOaRl-44" value="" style="endArrow=classic;html=1;rounded=0;strokeWidth=1.5;" edge="1" parent="1">
          <mxGeometry width="50" height="50" relative="1" as="geometry">
            <mxPoint x="406" y="442" as="sourcePoint" />
            <mxPoint x="485" y="442.5" as="targetPoint" />
          </mxGeometry>
        </mxCell>
        <mxCell id="EYOUu9byK4Gg7GPkOaRl-45" value="&lt;font style=&quot;font-size: 14px;&quot;&gt;\(e_4\)&lt;/font&gt;" style="text;html=1;whiteSpace=wrap;strokeColor=none;fillColor=none;align=center;verticalAlign=middle;rounded=0;" vertex="1" parent="1">
          <mxGeometry x="416.5" y="418" width="49" height="21" as="geometry" />
        </mxCell>
        <mxCell id="EYOUu9byK4Gg7GPkOaRl-46" value="" style="shape=image;verticalLabelPosition=bottom;labelBackgroundColor=default;verticalAlign=top;aspect=fixed;imageAspect=0;image=data:image/png,iVBORw0KGgoAAAANSUhEUgAAA9IAAAEKCAIAAABxA/riAAAACXBIWXMAABYlAAAWJQFJUiTwAAAAF3RFWHRVc2VyIENvbW1lbnQAU2NyZWVuc2hvdPd1DUcAACAASURBVHic7H1nc1zZtd3tnBM6ozO6GzknkgDzzEiUXNJY0nuy/NFV/upf4ir/BNvPZQVb1JvRaIYccghm5Jy7Gw10o9E55xz8YRVvwQCJ4XCGnuC7PqhGxO3bp+89Z5999l57bVqr1SIoUKBAgQIFChQoUKDwPkH/vgdAgQIFChQoUKBAgcJPH5TbTYECBQoUKFCgQIHCewfldlOgQIECBQoUKFCg8N5Bud0UKFCgQIECBQoUKLx3UG43BQoUKFCgQIECBQrvHZTbTYECBQoUKFCgQIHCewfzgr/lcrl0Ok0pDFKgQIHCW4LD4XA4HD6fz2azv++xvAuazWapVCqVSpVKpdFofN/DoUCBAoUfB/h8vkwmYzAYF192kdt9cnKysLBAWV4KFChQeEtoNBqdTmc0GhUKxfc9lndBo9EIhUInJyehUKhQKHzfw6FAgQKFHwesVuvly5f5fP7Fl73e7W42m41Gw+v1fvXVV7Va7T0MjwIFChR+gujt7S2XyzKZ7Eftdm9vb+/u7iYSie97OBQoUKDw48DU1NTAwACHw7k44P1Gt7tWq3k8nkePHpXL5fczQgoUKFD4qaFQKAgEgs7Ozu97IO8I0u1+8eJFIBD4vodDgQIFCj8O8Pn83/72t1Kp9F3cboIgWq1WrVbL5/OtVksoFPb09Oh0uvcwTgoUKFD4caNYLCaTSb/ff3x8XCqVqtVqs9n8vgf1jmi1WvV6vVwuF4tFFotlNpuVSqVUKqXRaN/30ChQoEDhh4Visbi/vx8IBCqVSrlcfhvLfxG3G+DxeBqN5s6dO9PT09/FIClQoEDhJ4VoNHpwcPD8+XOfz/d9j+W7hFKpvHr1an9/v81mo9Mp2SsKFChQ+L8Qi8X+9Kc/ZTKZer3+lh/5erebTqdzOByNRmOz2b7d8ChQoEDhJwg+n5/P50Ui0U8sJMzhcORyuV6vt1qtX1ueT4ECBQr/v0EgEEgkEiaT+fbG/+vdbgaDweFwFAqFXq//dsOjQIEChZ8gWq1WOBwWCATf90C+Y7BYLJlMplar9Xo95XZToECBwnkIhUIGg/H2bjeVN6RAgQIFChQoUKBA4b3j66Pd3yGazSbqdZrNJpPJxPngJ5aWpfAdAkKWmDYMBoPJZBIEQU0YChR+pKBWNIVvhGazCYeBIAgGg0H5DBR+Avh/7XbX6/VCoVAul8ViMY/Ho9Pp1BKi8CY0Go1yuVypVKrVKp/PFwqF1IShQOHHC6zoarVaq9UEAoFQKPy+R0ThB41ms1koFCqVCp1O53K5AoGAsv8Ufux47253vV4vFovxeNzn86VSqWw2C4Et2FyxWKxSqYxGo0gk4nA41Ir6cSGXy+VyOTqdzmKxhEIhh8P59vdstVqtVqtUKnm9Xr/fH4lEisVirVbr6ekZHBwUCoXnW0CVy+VyuVwoFBqNhlwu5/F49Xr9+Ph4e3tbLpcbjUa5XC4Wi7/92Ch8j8jn89lslk6nM5lMoVDI5XK/7xFReCs0Go1kMhmPx4PBYCKRgBdVr9dh/6VSqVKp1Ol0EomEOlT/iABDnc1mY7GYUCiUSqUsFgvpi2+Per1eqVRcLpfX600mk6VSiU6nd3Z2XrlyhcfjnZ8kxWIxm80ihSIUCtlsdiaTCYfDR0dHUqm0p6cHDsZ3MrbXotFo1Go1n8+3u7srl8tNJpNMJqM2nW+DVqtVLpdLpVKhUGAwGHK5/L2+wf+XeO9ud61Wi8Viy8vL//jHP5xOZzAYRLd5Go0mFArNZvOVK1c+/vjjjo4ONptN2dwfF+Lx+OHhIYvFEolEFovlO1wVmUzm0aNHjx8/3t/fz2QyBEH8/ve/b2tr0+v1593uYrEYjUb9fn+5XB4ZGWGz2aVSaXZ29j//5/88Ojr661//enh4mLKAP3YkEomDgwMWiyUQCMxmM+V2/1hQr9e9Xu/y8vLMzIzD4chms7VardVqcTgckUjU29s7MTHxi1/8gs/nU1vAjwitVgudlZaXl00mE1zb78rtrlQqqVTqH//4x2effZZIJIrFIkEQ//RP/zQ4OPjahZ/JZFwuFyaV2WyWSCTHx8fPnz//y1/+0tPT85/+038ym83v2+3O5/MvX778L//lv4yNjf32t78dGBigNp1vAxzqsLNzOJzh4WHK7f56tFqtarUaCATu3bu3uLjocrkajYbFYhEIBFwuN5vNFgqFWCy2sLBQLBavXr36wQcf8Hg8Fov1/oZE4btCvV6vVqvr6+tffvllX19ff3//d9hNKZ/Ph0KhnZ2do6MjDofT2dmp1Wr7+vqkUulrF57T6Xz69Gmz2ZRIJHa7XaVSNZvNYrEYiUSSyWSxWHx7QU0KP0DU6/Varbazs/Ov//qvmGxarfb7HhSFt0IikQgGg0+ePJmfnw+FQlwuV6lUcrlcFouVz+cLhcLx8XGhUKjX65cvXx4fH6c8lR8LSqVSLBZbW1u7d+/e9evXrVYrAmrfCRKJhMvlQpxOp9MplUqRSNTf33/+YNZoNKrVqtPp/Nd//df29vb+/n6NRiMSiarVaj6fj0ajGo2mVqu97/ZViP1j00mlUuVymdp0viWazebm5ubq6mqj0TAajT09Pd/3iL4zvF+3u1QqHR8f//Wvf11bW5PL5QMDA5OTk+3t7TKZzOfzuVyuxcXF9fX1xcXFXC43Pj7OZDJPu92tVuv8bS8Ih7z2+gtw+lZnPnv+W77pBRd819d+6rUXf9On8V6/q1arFQqF5eXlf/mXf/n3//7fG43GarWKT33tkC64eavVajab2Ww2GAy6XK5EInHp0qXJyclLly6ZTCatVnvmVIZbbW9v//GPfzSZTAMDA8Vi8fz9YRO/kx/+9r/rgtn1tTjzjV/78Xf7Ld/hbb/Np8hX/6YLUBCytrb2X//rf/3DH/5gMBjefrJR+H4RjUY3Nzfv37+/srJis9lAFYMXdXR05HA45ufn9/b2AoFANpu12WwikYg49Vq/0Xp8Gwt8gR34Rn967TC+k6XxjTa4t5//X7sA3+b6088wn88fHh4uLCx88cUXcrn8zp07jUbja1flWxqlaDS6s7NzcnJSr9fHx8enpqaMRqPRaBQIBGfaNjUajVKptLOz88c//nFqakqv11cqlbf86ve0z77ltxMXmr7X/ulrPZZvP1H/X9r8i69pNBqLi4uffPKJyWRisViVSuUnY/Pfo9vdaDTC4bDX6y0Wi+3t7R988MHY2FhfX59IJOJyuRaLxW63q9Xq5eXlpaWleDzudDo7OzuNRuPpmzSbzUqlgjbFbDb7YvZYs9ksl8uNRoPJZMKDh791uvaZfM0XzMXXvtdqtVoqlfBXHo/HZrPPX3P6DmiwjEM2l8u9ID+CU3KtVkOw/03d4JrNJkqRqtUql8vl8/nfdP7VarVKpYIML1K6b/ouJBDR7JTD4by2+BVyBOT15KP+2mFUq9VKpYLQCJ7kmU9VKpVSqdRoNEQiUV9f3+DgoMViAXfw/IBPj6H5Cue/FDUGzWYTkbY3iRDjV4BSxmazMeXeUrH4/GS74E+nzQ2NRkPZKIjLr/1G/CjStmKEfD6fy+Ve8MwRJy6Xy3Q6nc/nQwrggrEVi8VqtXrxPDwzmGazWSqVarXa15IEMIHJcxGPxztP0zw9i4rFYqPR4HK5eKfvNtkofL+IRCL7+/vpdLqtre3OnTuXL1/WarUCgYDFYlkslr6+Pj6fv7S0lEqlfD5fPB6Xy+WnWWQwRNVqtVwuM5lMzOGL5xiyW+QcPr/0yNl7/j4X/6lWqxWLRTqdDrNwPjF7ZlrC5oD5cMHORdqcSqWCFX3BryuVSgijstlsHo/3pivf9EV4kvhGHo93QT0VLsZ2w2Kx+Hz+d7UF4M7YTBkMBpfLPbOZ4gLsiVwut6ura3h4WCKRiMXi15qv1w7jzGV4fXh6b7/3sdns1/7wdwAGADvP4/G4XO6Z275p+yB/zmv/hP84/e+kmWUymW9ymU6/qdMu0wXO1elHilWGzRSSdG/6SKvVKpVK5XKZIAjsQef3CFxGp9NRb00QBO555p3iLf80bP57dLubzWYymYxEIuVyua2tbWJi4vLly11dXaTdtNlsMpmMwWD4/X6CIKLRqE6nw7PGvC8Wi4VCIZvNZjIZDofD5/NFIhGK6rBscJ9Go1Gv1/P5fD6fT6fTtVoNFX5isRizXCgUCgQCDodTq9VSqVSr1QJD9HR7i0qlkk6nm80majLwJ0ivoFwPwyAIgk6ni8VisViMezKZTCzgXC6XzWYZDAadTod9TKfT9XqdRqNJJBKJRCIQCE77r/A+S6VSsVhMpVKVSgXXcLlcHo+H1U68qtUoFov4gaVSqVQqicViiURCPoqLVwtsOirSstkszK5YLBaJRHw+n8/nY1TEK4tTLBbx5PGLBAKBWCzGM+HxePiuXC7n9/vT6XSr1crlcrFYLBqN4srX0oQgHIYfi2HUajU8GTxJnExgL8LhcCAQwFkLPxP+4vmfWSwWM5lMKpWCHUeYHFWVuACPLhqNslgsvA6hUCgUCkUiER4yeSsU8eA5Y4Q8Hg+Fv/jtLBbrTdpV8AszmUw6nRaJROTEIF7tTBgkOQ8JgkBhGVxtBoORTqfz+TyTyQThFd+LldJqtWq1WjKZrFQqXC4XtgnFrDKZTCqVwn/lcDgwf7BQeNSFQgE/h8Fg4EkKhUJcTLwy0HjRTCaTy+XGYrFsNiuRSKRSqUwmw2Wnjwo42aZSKTjE2MlyuVy5XEYJEfwGDoeDGYX3XiwWYXzz+Xwmk8GJC4PHi2CxWBhMPp/P5XLYk2KxWLlclkgkrVYrn8+nUimCIPL5PCYb1uBrT78UfjhIJpPHx8do4TkxMXHz5k2BQEAu5EKhgIWwurqK1VepVHg83pk5DEPE4XBgiDCH8eoxOeEd4mLYUnLZwveFBcaVqVSq2Wwi+oMZDiNZqVSSyWSz2STXCGk8MXVzuVwmk4H3ABuC2U5O9Vwul0wmORwOl8stl8vFYjGdTjcaDfJ6mFDy4cA6AaDctLW1SSQSDIzL5WJFg9GHtZzJZCqVCo1G4/P52C/wPC8IDbRaLexieIzkAsQKIh8m7tBoNBqNBt5LPp/HyuVyuTKZDM8TV1ar1Vwul0gkstks8pOBQADO05uYoljg5GaaTqdpNBqTycROhIp8JpNZqVSy2WwkEgmHwzjk8Hg8DPJ8qhNeXSgUSiQSsDMwDlwul4x5V6vVbDYbDoeh6FCpVKRSqUQiIScAbCz2Pkw5bLXZbJbP55/e+zCAb5RhIE9rmMZ4sOSTJzffRqOBV0PuEfguTDyI/8DAkv4DpjqDwYD9Rzy4VCph5JlMBocl0mWCTcYvxX6ECZZMJnHAkEgkcrn8te4E9lm8X0RCU6kUNlPMQDgS5K/GT4bNx2ZKEASTyZTJZHjy+IF4PslkslAoYGtLJpONRoPD4cA7x2yHg+T3+wUCgVwu/67qB75HvN8fgNAdnU4vl8uhUAguL/lXLpdrtVqbzSafz5fJZFarVSqV4k/FYtHhcKyvry8sLMTj8VqtxmAw2Gy22Wzu6emZmpqyWCykVcJO/OTJk7W1tVgshqpnk8nU19d3dHR0cnJy7dq18fFxu90eDAb/9re/VatVnU536dKlsbExcjAej+fTTz8tlUpyufzy5cuXLl0iCKJarYZCod3d3RcvXpBeJp1Ol8vlZrP5xo0bPT09mKkEQczNzT18+FAul3O5XFTuR6PRarVKEIRWqzUajbdu3RoeHka0lSCISCTicDg2Nzd3dnZgDvh8vkqlslgso6OjV65cwZZQLBYDgcDLly93dnaCwSBCgDweTywWT01NjY2NdXR0tLW1vekVYNlvb28/fvzY6/UGAgHYXBaLpVar+/r6RkZGJiYmEDSt1+vJZHJ5eXlzc9PhcOAMw2QyeTze4ODg0NDQyMiIRqOp1+ugl2xubtbr9ZWVlUQisbOzc/ny5Q8//FCtVp8fBhbq1tbWy5cvA4FANBptNps0Gk0gEJhMpsuXL/f29tpsNr/fv7e3NzMzMzs7e3x83Gg0/vKXv6yurtpsttu3b9++ffvMbR0Ox2efffby5ctwOExSUyYnJ//5n/8ZF8Tj8a2traWlJRRE41hvNBoHBgbGxsZOT4BsNutwOFZXVxcWFnK5HKYcn883m839/f1TU1M6ne5NoWVYmS+//PKTTz65cePG5cuXOzo65HI58eoA+fDhw7t37169enVyctJutzebzaWlJZfLdXJywmazBQKBz+eLRCI0Gk0oFOr1+tHR0Rs3brS1teEoEgwG//znP7vdbrvdXiqVDg4OCoVCrVaDENDo6OjAwEBnZyccC2zSq6ura2trDocjGAzWajWozXR1dQ0ODo6MjHR1ddHp9GKxeHx8vLy8/OTJE5lMZrPZ9vb2fD6fWCzu6+v7/e9/b7VaT8eEEIVyOp1//vOfc7mczWaLRqMHBwegTorFYoPBMDo62tfX19nZiaBdo9FIp9OLi4ubm5sHBwfJZBLJFoIgRCKRRqO5ffv28PCwWq0GIW12dvbJkyc2m02pVO7v78diMZFIBBGxw8NDgiA2NjZSqdTOzs7k5ORHH31Etc79gYPFYsFQw7Zgsyc3TjabPTg4yOfzBwYGpFKpWq3G4Ra0ouXl5fX1dYfDEYvFsB5ZLFZfXx8MkcViIV2QRCLh9XqXlpbW1tYymUy5XGaxWBqNpre3N5lM7u/v/+IXv/jFL37BZDJDodD//t//u1gs3rx5s6enp6OjA5tIpVLxeDyY2FevXu3v77fZbBi22+3e3t5eWFjw+XzVapVGozEYDIPBYLVap6en+/r6YBYqlcrLly//9Kc/WSwWm83mcDiQ6a3X60wmE0WHly5dGh0dJdNEwWBwfn5+Z2fH5XIh6CiVSrVabX9/f19fH4oU8ev8fv+LFy82NzfT6TQcSrFYLJfLp6ampqamLlZqqtfrqVRqb2/v4cOHXq83k8kgqM9msxUKxbVr14aHh202G8QcS6VSKpV6+fLl6upqKBSCj46g7/j4OCybTCbz+/1LS0t3797d3NysVCqzs7PJZHJ6evrSpUt9fX0ajeb8MCqVyvHx8e7u7tzcHDhFrVYLChVGo/Hq1au9vb1KpfLw8PDp06cLCwsrKyuRSKRWq/33//7f19fXx8fHh4eHBwYGyLwxaY7+x//4Hy9fviwWi3t7e7lcbnd3t7u7mxxDKBR69uxZJpM5OTmBpWKxWGaz+ebNm/39/RaLBdtxvV5Pp9NLS0tbW1sOhwOWCsEI7H3Dw8PftFcrRnhycjI/P7+7u3t0dIRwO8JJAwMDsMYCgSCfzz98+PDzzz+/du3apUuXrFarUqkkCMLr9T59+hQ7xe9///uPPvqIz+cjSLG+vv7nP/9ZqVT29/cPDQ3p9Xq4E/Pz8+FwmMydms3mzs7O6elpu92OzGGpVHrw4MFf//pXu92uUCgcDkckEmEwGKOjo//23/5bg8Fw3p3Y29v79NNPCYLg8/nJZDKZTKbT6Wq1ymQy9Xp9d3f35OTkxMQEGSTy+/2Li4t7e3sHBwfIWhAEwWAwxGKx3W6/ffs2mA71ej2Xy/2v//W/FhYWsNwcDge00eCdLy8vBwKBVCoVDAY3Nzfv3LnzH/7Df8A296PGe3S76XS6SCSCRUgkEk6nUyQSIVSMsyOXy5VIJD09PRKJhMViIfSFyNbJycnCwsLs7Ozq6mq9XheJRLVarVarnZycBINBnNugZtBsNn0+3+bm5rNnz9bX14lXR8xkMhmNRvf29o6OjgQCgU6nMxgM8Xh8dna2XC53dnaaTKbTo00kEgsLC9lsVq/Xm0wmRAiSyeTa2trc3NyLFy/S6TSTycTNDw4O3G43jUZrNpsjIyNSqZROp3s8npmZGalUilAHkob438PDQ0QQVSpVe3t7q9UqFApOp/Px48fb29sHBwdkfsfn8x0eHtZqNaPRqFQq+Xy+x+NZW1uDpgeZgkHFRqVSqVQqbDYbp/bXWoRyuRyLxUCvhBuNQwKYefDCzWazQqHg8XixWMzlcj1//nx1dTUYDCKLhDMrtkwejwdnlIx2EwSRy+Wi0ShKSc7XkeCJpVKpzc3NFy9ePHr0KJvNYiui0WilUuno6AgRL6lUms1mydg5ovLxeByBonw+f/7XITQOE4DvotFoMDq4IB6P7+7uIopGvIp8HB0dBQIBNpsNS8RkMvP5vNfrnZ2dnZ+fX11dhURdpVJpNpvHx8fRaJTH4zWbTYvF8trwKnxr2CahUAga+vk/cblcvV6v0+kajcbBwcH8/Pzm5iaPx5PL5YVCATs0nU4/ODjI5/NSqbS7u9tkMmE/mJ+fn5ub6+7uxg9EkMPn80Eqq1AoCIVCuDjpdDoUCs3Pzz979iwYDObzeSgqFgoFxJAQ+ZbJZJVKJRqNbm9vf/HFFzKZrLe3F2djxPCQBT7zKmu1WjgcfvLkSSAQ6OnpyefzkUgE0bJareb1etPpNCLfmFGpVMrj8czOzi4sLESjUWT/kcDJ5/OIeXC5XDztcDi8trb2ySef9Pb2mkymUCiEwSMadCbanUwmybdM4QcLsVjc3t4uEAhisdju7i7UqyQSCZkVUavVUqnUarUyGIy2tjb4QIiRz87Ozs3NBYPBcrnM4/GQDEkkErFYDOlKmUyGIN/R0dGzZ8+Wl5e3trawO+AUFwwGg8Hg1taWXq+/fv06m82OxWLPnz/PZrM6nU6j0SC9CWsfj8dfvHiRTCZVKpVWq7VarcViEVsATGIymRSLxYj2nZycuN1upKfMZrNAIKhWq263+7PPPrNarX19fScnJ4lEggwMe73e4+NjgUBgtVoRF4zH49vb2zMzM3t7e9jUuFxuIBDweDyxWKxYLCoUCuS73G73/Pz88+fP9/f3YTZJWgUErUdGRpAdfS1xolwuezwenK5jsRiZ20ylUkwms1qtNhoNhUKBsH0wGNzZ2Xn69Ony8jJJPyCTWqVSqdVqdXV1FYvFXC4Xj8fhPWezWb/fH4/H8/n8a7eASqUSi8VWV1fn5ubm5uay2SybzUbk9eDgwOl0gg43Pj4OoYVEIoEDRqPRiEQigUCgo6PjfN0OnEhEu8F8gHFQKBQymQzXxOPxlZWVQqGQSCTI0JLL5UIiWqvVYt+Mx+MHBwcvXrxYWVkJBoOwVEhZwNHkcrmI+r+9ngZ87rW1tUePHjkcjng8jhgW9rJoNJpOp/l8vsFgYDAYbrf73r17MM5KpVKhUBAEEQwGnz59ur6+fnR01NnZOTIyolar6XR6oVBwuVz37t3r7e1VqVSxWIxGoy0tLeG8VCwWRSIRth6/3398fIwchcViQT5hf3//k08+6enpaW9vj0QiSFlIJBIE9c7/kFAo9Pz581KpxOFwQERkMBhIDvh8Pp/Px2AwtFotHk48Hnc4HE+ePNnb24vFYlgjINgUCgWPx4OcuVwuRyZqdXX1008/7e7uFgqF0AtutVparVar1WIO4KXDGfgOy3a/R7xft1uj0dhsNpPJBGO3s7Pz8OFDq9Xa0dFhNBr1en17ezvcFEQymExmo9Hw+/3Ly8v379/3+/0dHR1dXV0DAwOJRCIQCKyvr29tbREEUSwW5XI5i8WqVquLi4t//etfU6mUTCYDd7Ber7tcrrW1tWg0en5gr6V/tV4xg8n/m8/nPR7PJ598srGxweFwxsbGxsfHW61WsVhcWVnxeDxffvllJpPBT2Cz2UiiHR0dMRiMzs5OxEtIZ2J/f39jY0OtVoO64Ha7X758+emnn4K+3N/f397enkqlDg4O5ubmuFyu0WgcGhoymUwvXrz4/PPPA4GAUCi8ceNGe3u7RCLZ3d3d3Nzc398Ph8M4F5Lm4wzS6fT6+vrq6qrL5RobG7t161ZbWxudTt9/BbFY3NvbixW4s7Pz5MmT58+fFwqF8fFxq9VqNBqPj4+dTqfb7X78+DE2jJGRkYGBgf/4H//jp59+ev/+/f7+/kuXLo2MjPT29p4/icLmejyev/3tb1tbW4lEoru7e2hoSCqVNpvNtbW1o6Ojx48fl0oltVqN2C2iPl999VW9Xr9z587w8LDFYrFared/XUdHx+9//3s2mx2JRBQKhcFgmJ6ehm3CBdjALl++PDw8rFQqC4XC+vo6NiGj0Tg+Pq7Vavl8vtfrXVxc/OKLLzKZDOJMvb294XDY5/Otr69vbGzAxGi12u+Q1VCpVBKJBJKAV65csdvtuVzO5/MtLS1tbGyUy+Vf/epXpw+HuVxub2/PYrFMT0/bbDaz2byxsbGzs4OnqlKpuFyuTqfzeDyPHz9++vSpw+EYHh7u7u42GAy5XA4vcWZmBifesbGx0xybRCLhcDj6+vquX7+OaJBUKr0gnZpMJjc2Nrq6uu7cuYMA2Pr6utPpnJubKxaLer2+p6dHr9d7vd65ubnFxcVIJDI5OdnV1WUwGLAFzszMbG9vLy0tcTicjo6O04yvaDTKYDD6+vp0Oh1IXzKZ7NmzZ3fv3u3u7r58+fLIyEhfXx/yCRR+yDAYDGNjY/Ab/v73vy8tLRkMBrPZbDabjUYjKVKBTlgk1cHlcj1+/PjZs2d+v394eLizsxNBE4fDcXh4ODMzg5jf2NiYSCSKRqNLS0t//OMfuVyu3W4fHx/X6XR+v9/pdG5sbEQikXfeqsPh8N7e3qNHj5aXl7Va7cTExMDAAE6eW1tbTqeTw+EUCoXf/OY3p63T0dFRKpUaHh6+cuVKe3t7sVjc3Nz0eDwrKyt2u31oaMhgMBAEMT8//+TJk9nZWYFAcPPmTZvNhoCly+Xa2toqFotdXV00Go3NZr948eJf/uVfOByOyWQaGxvTaDTVavXg4ADZgJOTExaLZTQa38RXzufz8/Pz8/PzxWJxcHDwgw8+wFqbm5vb2tpCYGtwcBDklrW1tT/96U9+v79er1+5csVqtUokEp/Pt7a2hpwbj8drPBG+NQAAIABJREFUa2sTi8UDAwN37tzh8XjPnj0bGRn51a9+1d3dbbPZyJQ1iVarlUqlnE7n559/vrGxweVyR0dHx8bGEHZZWVk5PDy8f/9+LBZTqVQKheLOnTsYzNbWVqFQ+N3vfnf9+vX29naNRnOaYICHY7FY/vCHP4jF4rt371qtVhiHjo6OcrkcDoeJV9qC4+PjH3/8MZPJzOVyL1688Hg8X331FY/Hm56e5vP5rVZrd3cXe182mx0dHbXZbAaD4eTkhDSbONiMjY29vdtdKBRevHgxMzOzvLzM5/Onp6fh+TgcDqfT6fF4njx5wmazp6enJyYmFApFW1tbNpv1eDwjIyPEq1Shy+WKRqOtViuRSJycnIhEIhqNFgqF4KGKxeLu7u5yuby2tvbw4UOHw9He3t7Z2TkwMJDL5UKh0MbGxt7eHoPBwEQ9nYv2+XyFQmFoaKi9vb1eryOcjwTL+TfYaDSi0WihUOjo6Ojt7R0aGkJMEI4NaFSTk5NarXZ/f39ubm5paYnH4925c8dsNre3t8fj8ePj48ePHyNqIxAIBgYGSI+lXC4fHBzo9fqRkRGxWFyv1+12e2dn5927dyuVikKh6OzsnJqaGh8fPy8f/GPE+3W7BQKB0Wi8fv06h8OBALPT6YzFYoeHh1qtVqPRqNVqnU6H6CCOcXgB8Gt5PN7U1NTo6GhnZ2c6nQ4EArVabWNjw+12t7W1Xbt2jU6n5/N5t9u9s7MDZ+7atWt6vR7VePF4PJfLkVHS82UWF6DZbIZCof39fYfDkc/nR0ZGSOZJsVhElG5rawuZI4lEQqa0arUah8Pp7++HzUIQBbHecDh8fHw8NDTUaDT29vbcbncqleru7v7oo4+6u7vVanU6nZZKpYFAAEfGSCTCYrH29vZcLhdySdeuXTMajUKhUKPRyOXyL7/88ujoaHd3V6fTIcp+/ofA+kQiEfDG4Azx+XytVotoCuRBwNnd29uDqoxOp0P+VKPRwPmuVCq7u7vb29symayrq0utVo+Pj6+urtJoNLVa3dXV1dvb+1o15Xq9jhTw9vZ2JpOxWCwTExPXrl0Ti8WNRkMmk/F4vAcPHuzv76+url65cmVoaMhutyeTyYWFhVqtBl6E0Wh8bWqpra2tv79/bW0NPCW9Xo9EJGmduVyuQqEYHBy8deuWXC7P5/NCobDZbDocjlAoFAwGwZZzOBxra2vHx8c6ne7mzZsDAwN2uz0Wi3k8nkql4nA49vf329vbb968yeFwviv1UEQjjEbj4ODgpUuXBgcHC4UCUuper3d1dbW7uxvaargeVEidTnfr1i273a7T6dDq9bPPPnO73fv7+2q1uq2t7ejo6MmTJ5FIRCKRjI6OTk1NaTSaQqFgNpsZDMbh4SGCZ0aj8bRPL5VKOzo6JicnR0ZGaDQa6I8XVFUig9nR0fHzn/9cp9OJRCKxWMxkMnH/3d1dqVSq1+ur1SpYiRKJZHp6emBgQKvVIpEdCoUQEfR6vaVS6bTbLZfL0Rqjs7MTL1EoFHq9XoIgVCpVV1cX6AE/DRP800ZbW1tXV9fVq1dbrRba5WQyGb/f73K5NBoNtoD29nar1arRaGA9arXawcHBy5cv4/G4QqGYnJwcGxvTarXJZNJsNt+/fz8YDDocDsxYOp3u9XrdbrfX67169eqHH344PDys1WojkYhIJPL5fMlkkiTvfqMtgCAIJF0PDg4qlcrQ0NDU1FRXVxf8DwaDkc1mQ6HQ6urq5cuX29vbyZANaLIDAwPXr19Xq9X5fF4mkzUaja2trXA4HA6HZTJZq9VaW1vb2dlhMpldXV0ffvhhR0eHSqVSqVRSqbRQKKBmBpH+/f39w8PD69evT09Pw7Op1+sajYbBYGxubm5tbblcrqGhIQjnnf8VYKmhY4ZCoejr61MqlbBjMpnM7XarVComk1kqleChrq+vq1Sq7u7uqamp3t5ekUgUCASUSuVXX3318uXL/f19q9U6NDSk1WptNpvL5WIwGO3t7ePj4+3t7YianxkA6DR7e3tOpxMBnUuXLo2Pj4PnhmzD7u4uOAkCgaCjoyMajXq93qOjo2az2dvbOzY2RpYhnr4znU6XyWQDAwNOp5PFYmGy9fT0GI1GmAuCIJBgGR4evnXrFoPByGQyyN9ub2/7/X4QuGk02v7+/sLCQiaT0Wq1U1NTUCkNhUImk6larW5tbe3s7Mhkss7Ozrc57SMxmE6nd3Z2dnd3W61WR0fH7du3Mc/1er1Go8FCWFhYkMlk4+PjSqXSarWCQ5jJZMDmTyaTiUQCwgapVOr4+NhoNDIYjJOTk2g0SqPR2traTCbT2tra0tLS4eFhq9WamJhAgKNQKMBfL5fLPp9vY2NjenoapTIYJNQ8x8fH+/v7G42GTqeTyWQXxJVQHmCxWG7fvt3X14fUDZ1O393dPT4+fvnypcFg0Gg0qD1QqVQmk+nWrVsmk0mtVieTycPDQ5/Pl8/n/X4/ZiPpdsNXRNRMq9U2Gg3EZOfn54VCITi9ExMTnZ2dPw2B6ffO7dZoNL/5zW96e3tnZ2e3t7fh7uD4BWaF3W7/4IMPrl+/DpJ0rVbb399fWVkplUq9vb2//OUvu7q6QLe32WzICc7MzLjd7nA43Gw20+l0OBzO5/NDQ0Mff/yx3W5HdgmEkHK5HAwG32Hk9Xr98PAQXDqNRnPnzp3x8XG9Xk+n0+v1ulgshgZiLBZzOBxKpVKlUhEEQaPRxGKxyWT68MMPr169ijxao9HY3NxEfScy45VKZWdnJxqNqtXq6enpf/fv/h2qSUCQJZVbEolEqVQ6OTkpl8uIUly6dEmhUCA11tfXh/wOPMKenh4yrXYaSImCUEt2+NNoNCqVqqOjo7OzE/RlgUAAPv3Ozk5XV9fk5OSNGzfgqOl0up6enkQigZUjEol++ctfKhQKpVIpFAqh6yKVSsEROu+oweh7PB5sordv356enobNbTabOEUsLy9HIpH5+XmDwXDlyhXU82H9y2QyuVxOZp/PgMPhyOVykUjEYrF4PJ5IJEJ6kSRI6PX6ycnJq1evXr58GSd+kUiUTCafPHmCjKTJZGIymVtbW+Cpd3Z2fvzxx+3t7RwOR6fTGY1GcsodHR1FIpHvqhknCbvd/tvf/tZqtep0OlR6RaPRUqk0Pz/v9/szmQx5hODxeEajcXR09Pbt20qlkslkikQipVK5urq6tbW1v7+v1+ttNpvX63358mVXV9fIyMjVq1cvXbrEYDCazWZ3d3e1WvV4PIlEYm5u7vbt26fdbpvN9pvf/GZsbKy7u5sgCJRSXDBskUhktVonJiY++ugjJL7RRQwsz62tLZPJNDExAX7XtWvXRCLRjRs3dDod5rnRaATb++TkJJfLnUlM9/f3//rXvx4bG8MI6/V6qVQC9xSTTSaTiUSib8SzpPC9AOVTv/vd7wYHBxcWFjY3N51O58HBwebmJjKcPB7ParX+0z/909WrV+12Oxh0brd7aWmpq6trYmLi+vXr/f39oEf39/fDGQ0Gg4uLix999BGbzXa5XOFwmMVijY6O/uEPf8AKNZlMbDbb7/fXajWUwr8DPB4PaCcajebWrVs3btyAT4nSCBqNNjMz43Q6A4GA1Wol3U2j0XjlypWbN29OTU0xGIxSqaRUKiORyJdfflksFuFF1ev1nZ2dUCg0Pj7+wQcf/PznP0cJNVJ2BEHk8/lWq+Xz+dCsl8ViTUxMfPzxxzhsEwSB1p6lUml7e9vr9bpcLoFA8Fq3GyEVJOvxzCUSCThgPT09oVCIzWbjeHBycnJ8fJxMJq9cufKzn/1samrKZDLR6XSDwTA4OJhKpRYWFo6OjtbW1nBIkEqlUPQTCARKpRLcodeKwKBncCaTUavVd+7cweEB1HkcqsPhcDKZ3N3dVavVSLWhYBp1eEqlkkajnVcUQcAbRFYajcblcmEcQFslX8e/+Tf/5sqVK319fQRBZDIZMFiOjo6q1WoqlUJNqtPp3Nra6uzsnJychAw59r6+vj74vh6PRyAQ/OIXv3jLyYNqosPDw3g83tvbOz09/bOf/aytrQ23NZlMXq83Eomsra3pdLpKpaJUKgcGBpAzRClhNBola9UEAkE6nfZ6vaOjoywWy+PxRCIRDoejUCh0Ot3nn3+OkiSbzfazn/1sdHSUy+XC9W82m3Q6fWZm5uDgIBgMonwCjw6J05s3bw4PDxMEATbIxQWjDAZjbGzs17/+NTSFLBZLPp+HEt38/PzNmzchvY8kSUdHx7Vr1zCx5XK5QCDY3NyMRCInJyc4WJK35fF43d3dV69evXXrFuY/dj3wCFDYqlAoECN7y+f/Q8Z7dLsh+8Bms9va2mBPrVZrMBgkmVvoGA/+CcpXLRYLn8+PRCI+n69UKvn9/kePHm1vb+NWtVoNScZ0Oq1QKJLJJOg+sKoqlQrLFaXiKpWqt7d3YWHh3QbfbDYTiUQoFAKteWVlBdVdcBaTyaTH4wE3DgwtUnlKIpEg6HhagBaxQJTdgI6Glop6vR6MKPLK9vb26enpUqnEZDIzmUwoFALrFyyIeDxOSqyUSiWPx1Mul7E4UbVwHjiSOp1OoVDodrv/9re/qdVqtVqtUCgEAgGDwZDJZDKZDGU3qOCOxWL7+/v37t0jj/UoysSLS6VSpVKp2WySEi7kCeq1bhDi/bFYDOxthNvJX4FwO9gIIItD2QM3R/XSBTcHnREMyNMXk7YDdX5Y83jIWq1WLpfT6XTUQaJmIBQK+f1+PNL79++TyxtHEY/Hg7RJIpHAx99tUp0fPIvFUiqVdru9ra0N2zZqi51OJ2rbI5EIeZri8/kWi8VkMkmlUiRGUVLZ3t6OU43f708mk9lsFru71+t98uTJ8fEx+Y2rq6t4iZVKJZ/Pk9WNxKtoN45SbzN4kUiEtDjmebPZREmcVqvFQSuZTBIEoVKpcEwtFosHBwculwtSNrlcbnFx8eTkBLz8M2FIhDfkcjkGA4onJgCOjhdrXVH44YDBYHA4HK1WCx1Sm82GmHcqlQJl9uTkxOv1PnjwoFAo0Gg0mUwGSZBCoRCPx91u98OHD/f29sgbom4+kUjweLxCoYCQITRAwIglbYVSqbTZbEdHRzs7O+8wcqT1UQZHEASi76TnB0Yy/iWdTmezWdLPk0gkZ2wOPAbaK1XZfD6PBUin0/V6vV6vF4vFEE4RCoU4phaLRbVafXBwEAgEIMHkcrlmZmbIJuf5fD6ZTPp8PpQ9RKPRN+lV83i8rq4uFKVtbm4ymUyVSiWXy6EihVAFynUgZFStVv1+P4pTUV0H+qXD4YCkUjgcBqecfNTkf7/WK8I2HQwG8SgMBoNarQZno9lsGgwGtJdPJBLYTGHJScWzM908SOCvsKKw+aRxOK0yKRQKUShF5lJUKpVSqWSz2TjP53I5giBg4UFkun//PioaCYKo1+ubm5vk3oct4/QW8yaACg99KrCqYLcJguBwOG1tbRaLRa/Xx2IxiOSIRKKenh6n0xmJRNBkCj4G5DtQEXR4eJjL5VgsltvtzmazVqu1vb2dyWQmk0nkDMPh8NOnTz0eDzbEVqvlcDhQy06n01OpVC6XI1lAMplMp9NdXI97Gjj/oO8KWUigVqs7OzuLxaLP5wPRX6vV0ul0oVCIlA7CiBCTWV5eRsXO6a0Hr5i8MzkYMMjJnf1i8egfF95vuxw8WQaDoVarNRoNZipUkI6Ojra3t588ebK1tbWwsFAqlVDq0dnZmUwmQ6EQQRD7+/vQY8INUTMBIR5kcECzQ+mrVCpF7gwX47D12gAw8TrCyZkUJMpEEolEtVpNp9P/+Mc/ThdQI34Qj8fVajW8VXwWwwDL9vSyRPEomOtkDL5arfb09Jxh0CLfhP9eWlra3t6G4tLGxsbBwQEp3oKnAXHGdDqdyWTe1BNLIpH09/e73W6pVAqlDg6HI5VK+/r6BgYGRkZGdDqdUCjEFoigyMnJSTKZ3N7eJuOdUMeDTlyxWPxGLbhQwpJMJlEaa7VaSbeVTqejSMVkMiWTyVgsBgv4HQKhfZKNgMpdEEnB8UB5XyKRABFwY2MjFAqRy/u0lhZCI4VC4eJvPJ/OflNqm06nI89rMBjI7QohbbAY8/l8OBwmJx7cbgSMiVeRHqFQiNwu7Fo8HkcjZRTKHB0dnWZi5HI5FKkgpni6eRufz8de+JYPViKRdHZ2kkxB/BYcclKpFHkY1mg0MKMOh+Ply5cnJyeRSMTv9+PYCUZWvV4/84gQxafav/+oQRZCEQTB4/HgX8LWZTIZVLDt7e09ePBgZWXlwYMHiUTCZDKZzWYQHtB4HLzE0zMhk8lABVWhUCDrjeAIIh2nUzQCgcBisWg0mjf5gmcW6flqn0wmEwgECIIoFAp//etfT59ISXVOtVoNiTTSmxEKhSqVihQKhNw4dgTUbuZyOVKUWqvVotiGeMUik8lkU1NT+Cw8MDDN5ufnHQ4HOQC4wolEgnilJfemCmOBQDAyMhKLxVZWVhYWFhYWFiA+ODQ0NDo6eunSJb1eDx8Ubdgbjcb+/j64jqf93VgsVq1WM5nMN61mBrcb1XVyuVypVJKuFemI8/l8aDvmcrnXNl54Z4BKQb476GlIpVKk3VDwiuYGOG9AKImcSK1WK51O53I5UuCyXq9fLB5PvPIfUF+OfDL8Y/ICNpttMBgsFovD4cAYBAJBT08PypxisdjJycnh4WEqlZJIJEajsa+vDyT4XC6HDE82mx0YGIBCA7Q+CIIol8v/83/+T3LuoRQNE1UqlWITJ+maiNq8vZmFZ4yTLfmP2Ag8Hg8q+5vNJmIxtVrN6XTOzs6Chg7LD5kEDodzptwC4b835bR/eniPbjdCpCcnJ3Q6HVp1mPqgvnV0dGCTXlhY+PTTT6vV6u7uLqTHCIKAnCeE3sjEGZImAAw0Yr0wZ8jpkA1BcAi+WMj99L9gBZ7xAPDfEB0nVXXwWdTYIXzb3t5OWnYy+Hr65mf0niEH/qZCn9YrbfzWK4l4pGDAxyBnPFYU6NEDAwOnqbGngWzD9PQ0l8s9Pj5GvTlM59zcnMPhcDgct27dwtmUIAgOh2M0Gg0GAyjg5HeBqVKv17u6utra2t5euxRH1QtyQ/iZFwi+fhtgGrxNZorNZovF4o6OjtMaVZBfBLq6unBE+dpbtf7vzgK1Wu2Coq4zcwP+K1RLz8+l82IFKESDpA/JYSUIQqPRoGr59MmTbFQklUoNBsPprwar5BvRNjDC0/+C5hewqrjz/v7+1tbW4uKi1+vFOUGj0RgMBiaTifwG/IYzQGzjp5FP/P8WaKcAKdL29nadToewLkEQXC5XLpeDU6FSqXp6ej7//HNoK3G5XHgSYAxjDp+OxkHtvtFooDqoXC7TaDQERyD0RAJe7AVbwJnRvraFOHiDarV6YGDgdDkaaRakUmlXV5dUKj1NVL3YLTvT/ulNY6O96o2Fp4H6mdPXIIJTq9V6enqsVuubTBO0Vm7fvi2RSDweTygUgixVKBR6+PDh9vb2yMjIL3/5SwRTwEXs6Oiw2+1nCHWgREulUovF8k0zftiXsW+eP96Qv5eMW3+jm1+Miz0BcgzEK1cYOL33oUAFdX5yufwth4ef/LUbHznCtrY2iPPQaLRIJOJ0Ovf39/P5PCQobDbb9va2z+c7OjpCwoHH40GGj/w6kUik0+kGBwdJm3/aZUKZ1mmeBlglb29mMbHPXA9tFpK4go6hOzs7i4uLKKvgcrlms9lms9VqNYgLnbf5ePUXd1v7KeH9ut1Op3Npaaler4NagHg2mv8hStff38/n85eXl9HPEhphmA1wuycnJ6GkQ0pCAm1tbRqNJpFIoHy71WoVCoV0On26FUi9Xj9jRsnMS6PROC1agiBEqVQ6fYhHxgrlZSg/J9uXkG10sEkoFApyLpIEiTPfe5qXRg4D+8fpK3HwhfnDKYJGo8FuDg0NqVSq0/0dIAKKSNKbOpbB67VYLCgQ8fv9brfb5XI5nc7j42OIYHA4HKhGYPajag217eQjwm7XbDZRuHN6eZw/w5wZAFYUAsxkl7UzT77VapH503fG+ZHgJV5sWfCIuFyuWCw2m81XrlwRCAS0V9q65JRTq9VKpfJrO8Oh3wQ5DHS3eRMFCBMJWcvzg4RFg+QTcapv3Ok4YqvVIsdPNm9Csr6jo2NwcFCn05E3JHvUQSH+9Dd+U7ebPKbi/54eEmmIkeJ88ODB0tJSJpPp6upCea5Op0O5DEqoz9/8Arf74slG4YcDsmPAF198AbFtKJbAoCHnhoCfQqFYXl6OxWKhUAgOOjZ4hUJht9sHBgZQOQNANbXVaqG7RzgcZrPZjUYDwTbIezNe9Y3CYjw/tjN/wsoCA/D0ZVgUQqFQq9WOjIxAroT2qkEPwOPxDAYDCKz41NfaHNJ4nl9E2OOgxAoRTzg6DAajo6Pj8uXL5J3hu8O2gKd33jSROVihUNjZ2anT6YLBoNfrPTw8BEnG4/Fsbm4Gg0FSuQjGRKfTQfoJrjzuA1VcHo8HzsyZL7p4YTKZTIh94aGdDhijzwBYZOT2/W547Rje5nVgMKA6QDnttOdK7n0qlQpkobfxDkmnFuVVZ6h0JOGeIAgWi4W0J51OR00qAsNOpxO+dWdnZ0dHB5fLTaVSLpcLchFWq9VqtWJpYKKKxWK9Xo/aVuKcyyQWi3U6Hbm1Ea9eytu73egXS4Ymz8SDQO+pVCrr6+uPHz9eXl7mcrnd3d0KhcJoNEK5YWFhodVqndcChpMAzf7XfvVPzOa/X64MSh6dTmc+n5+YmEDnyDPXwItFqR/EpyH6i3rY7u5uFPaBGIf0dDgcrtfrEEBVKpUCgQCN6I+Pj9H8iSAIZNhBMCUBpx/9wEgPu/WqFS30pElThX4EbDabw+GoVCpoy2MV5XK5SCSyubkJ1cJvmhTDDYPBoM/nw0mDRDAYnJmZ8fv9xWJRo9FgEWJSKpXKoaEhuMJYyUtLSz6fD9WNbxoDGiWAQGY2m8fGxiCen0wmV1dX0Tlib2/PYDAgyouFyufzoWmIm9Tr9d3dXY/HAxUXRF/IFXKxzYUQKTg22WwWEuY4SsGipdNpsDNRh/GNnuRpvLNDxmQyFQqFVCotFotsNru/v59shQXd05OTk0AggCLd19oFMgxAziVyKwUZ6bWi47BimUwGnTXx20FAisVijUYDR1NwWAmCgEhqKBQi3QUcY9CAzWAw6HQ60DThVdDpdGgOkN94eHgIFXPSQXnn6EIulzs6OhocHCT/BdLgwWCwUCgYjUYIRLpcrsXFRR6P19fX96tf/cput5MtzXZ2dl6r8nsxvnaDp/ADAY6CpVIpEAigty7q8M5srmTcF2QMONNoVInGIl1dXUiBAhBfwxJDo28chqGvjFoIbAGFQgFVa6RtREyERqOho+HpLSCbzZ7hTiDOjVqFSqUC8T4yFhsMBv1+Pwy4yWT6Rtk/1PCxWCzITKE1Jv7aaDSCweBf/vKXUCjU3d1dLBbxcxD9MZlMWOAEQYCUvLOz4/F4oEz12kUB5vfKyko8HpdKpW1tbZOTkwMDA5lMBs1r/v73v+NBmc1mmUyGrCnKLnt7e9F/AC4+NMTAWYee9+kvujjyAhECUDhAJkSn92azGYvFfD4fdhaURb1zmuvdjANiBKhBRBirv7+f7MMF2bHDw0PoHKAe6WvvSb5lNptdLBY9Hg+0wMkL0ITk5OQEUWq0/2y1Wnq93mq1oubB4/HY7XaTyWS1Wi0WC3S1FxcXuVxuoVDAfED0HdRWpFUhG0+GCOEyoTQTyj/vbPMhQ4Qmr+Q7yuVy0PtSq9XglmxvbzudTrVaPTEx8atf/QpVZDweL5PJQFP8mwp6/vRs/vstqcR8QrNGELiNRiMalMBBAckbjX8NBgOcM71eb7FY0IoPZbygzYHJBx8Inh/WPwS8/X7/1tYWfBc6ne7xeNDz5f/6tUymQCAAkTcSiUSjUSaTWa/Xo9EohoEQHe6gVquNRuPGxka1WgXvGR1WW60WuIkej4fFYvX29n5Tpr9AIDCbzeiqeHR0dHBwIBaL0c8WPXTQgqStrQ3KgBCrQl9i9FFHb/BAIADy7gVrCdseYts3btyw2+1I3YKiLRQKUd9GEAS8YYlEUi6XQRbncDgCgQCdTVBdhLJx4hXbAQsbOkeovznNPiefuUKhAG8YIuJ8Pp+k1kUiEQgRQIEV7vg3BZIJlUoFRgFtbN9ylSL2Bl6N2+3GlGMymVKptPWKn4cph340r33XZA6HxWJB5slut2PSnpycbG1tYR6eGRWsfDAYXF9fhyBgrVbz+Xzb29vBYBClTnK5nPwIKmvdbvfx8bFareZwOIlEwuVyof5Yp9OZzea2tra2tjaVStVoNFA6iTlPEAS6Lh8cHOAIB1LKOzxtIJvNut1ut9t9cnKC0zJaYvn9fvQVQhgmm83G43Gj0ahSqfr6+sjumCjwABP9a3PueMIYLbwrhDYR3X/nn0DhvQJRZ+i+oZSlq6uLIAj08UWhS7lchjQyukOjJhKet1wuR9y3VquhOQ5iDel02u12IxqCFJnZbN7b26vVatgC4NxXq1Wv17u7uxsIBMh6dzi7bDa7Wq0GAoFAIJBMJtH84eDgYH9/n2zjgushjep2u/P5PJmRA1kC/Y/J0/jbRw2RdoewaSQSOTo6cjqdkLvmcDjpdHp3d3dmZgZ9bdRqdUdHh9vtbrVaaE2vUqkwhnq9jpbsbrfbbDZfkKqCJi9EqAYGBsxmM7R6UUkvFouhqcdkMkE0Z7PZMOnNZhNbHiqIotGo0+ns7+8nC93opxqVx+NxvJTzjA5spiaTaX9/Px6P7+/v460xGIxqtbq/v7+9vQ1pVwzgm1LdyPAz9A+gw/v253mk1uVyuUwmw96HmhPsfcViMR6PHx0dsVis0+IHXwt0TUcEx+v1OhyOgYEBHBHREuTg4CAej8vlco1GA9e/0Wh9kO+6AAAgAElEQVS0t7dbLJa9vT10TbLb7diblEol1L3gdeCIgpgjQRAQcyQnKkEQIJOgNsnn8wUCAWQzvg2NE0WiHo8Hosl0Or1QKCBt0mg0Ojs729raWq0WtmCJRIKciUQiodFoiFSC3YS00tsEK/GoIW2ZTCblcvnF3s6PBe9x04Ksb39//9zc3NHR0X/7b/9teHj40qVLSqVSKpVWq9VEIrG7u7uxseH1etGsG2UH6MaESt7PPvssFAqhhUo6nf7iiy/W1tZEIhHO5Wq1Wi6Xm0wmmUx2cHBQLpfpdHosFmOz2evr6w8ePHC73aeHxOFwlEqlx+M5PDzc2NiwWq0ikahSqSwuLs7Pz2cyGXg58OmtVmssFnv27JnP53vw4EE6nS4WixKJhMFgPHv2bHFxEc26UZ/xjQ7oUql0dHQ0Ho9vbGzMzc2xWCxI1kcikaWlpc3NTaVSCXF4iEVwOJy9vT2k4bq6urRarcvl2tzcfP78eTKZ7Ovrgxf72u+CRwi5GJhRaGCjrTeabyFKKhQK7XZ7d3f30dHR6uqqSqWKx+N2uz2VSuEJ7O3tTUxMwNchC8abzWY4HHY6nTAoiM6eHgCbzTaZTDabTaFQBAKBR48eId0mkUiazebS0tLCwkIymezt7UWByDvMNHASoAkFm/7aBvVvAmKxgUDA5/O5XK6//e1vY2NjQ0NDlUolFAr9/e9/dzqd4J9AJ/u1A+ByuQjiQsFUpVIhjbO+vn7v3r39/f03fTu+ESppiURif3//0aNH6XTabrebzWahUEjSMAqFAkpjwdJTq9UrKytLS0vIRXZ2dmI2mkymycnJo6Ojzc1NnU5XrVbtdnur1QqFQo8ePfr8888nJyf1ej12x3e2X5lMxuFwLCwsoKUfqGKLi4vHx8do1mA0Gul0ulwub29vhw4mej2wWKzDw8OdnZ2lpaXj42N0L7vYBJ/WTIhGow6HAxGUM1VKFH6A6OjomJ6enpmZ2d3d/dOf/rS5uTk4OIjOlBCOmJ+fR1Ob/v7+zs5OVLBYLJbh4eGjo6P19XWNRpPL5ex2e7lcBh35xYsXk5OTVqsVjNjR0VGn00mn07e3t+/evXvt2jXEC9fW1mZnZ4+Pj8noGovF4vP5EEtdWVkRCoUoMygUCrhtJBKBfhlgMpmmpqbQafXRo0eFQmFkZITH41Uqla+++urhw4cikairq4vD4aDN6ls+EwaDIRQKsd53dnYajQaLxbLb7RqNZmdnZ2Vlxe/3y2SyoaEhs9lMEMTe3l69Xl9ZWWk2m2iVxefzHQ4H2oZHIpFbt26dlhM4DfgoOJOgrE0oFKrVaqFQCPZwNpvlcrlQWQYHTCaTeb3eWq1Gp9OhYx2JRLa3t1++fLm2tgZiN2i45KoMh8Pr6+uQN5HJZGcqs0EWHx0dhX24f/9+MpmcmpqC3/bs2TOQ0BDTfVMJ7Jtwehjw6eHporL8bYBDnc1m6+npIfe+ZDJpt9vRLQQMeHLve8vhQRixq6sLKpCzs7OoPjQYDE6nc3Nzc2dnp1wuDwwM2Gw2VHDSaDStVtvR0QHtlFqtBhkWhULBYrHUarXBYAiFQvV63WazoUESDLjNZpucnIxGo4FA4N69e4lEYnR0lMFglEqlL7/8cnZ2ViQSDQ8Po1Xf+fbDbwnkM9EHp7+/n81mu93uubm59fX1/v7+q1evtre3o3pHJpOlUinYfHBlt7e3V1ZWNjc3A4EASZX82tAYdqh4PH54eLi/v8/j8To6Or7DjnXfF97jpgUBE/S94/P56OyVyWSguVur1RC6LhQKnZ2dcHTUajV0BlFCDnlXvL9mswm3A6K/HR0dCKWDDnHz5k2XyxUMBmdnZxHPC4fD0Jw/PSTIeiC27XK5vvjiC4FAgEQMzmc4mREEQafTQfO6dOkSk8mEQ5zNZsHhc7lcsVgM+vZo4X76zP21wDAikYjb7c5kMmCVoCI+FArx+Xy73T4xMWG1WhUKBYrQDw8P/X7/8+fPDw4OlEplOBw+OTmp1+t6vd5gMCB1+9rvQu9ZrVYrEAj8fv9XX30FmwvxKUh6jY+PGwwGMLwhyxiLxZaWltAsAJEP2GuLxWKxWNAins1mo0NNNpvd2NhA+kIkEp1xTFE5brFYrl27trq6ir456F5LEITb7U4kEl1dXRDtP03ifHuAx3x0dOT1el+8eFGtVq9du3ZGougCcDiczs7OVCoFGX8INXq9XmRjvF4vnU63WCxms5nP578p2o1GcVeuXPH5fAcHB8+ePfN6vQg51+t1nFJea6/RmXJ+ft7j8aTTaYQENBrNlStXenp6EIojv4XJZMZiMXSgVCqV0L1WqVSdnZ0o7UXHx48++ujZs2foQJHNZvf396Ee5fF4oEfe1dX1bfg85GBOTk4ePHiAJXBwcBCNRi0Wy+joaFdXF6R2LRbL2NiYy+VKJBLPnj1DV4t4PA7RfewitVotm83m8/k3Od94vDKZzGg0FgqFzc1NgiAqlcrNmzffVElM4QcCeK7ZbJZOp6NNdzQaxRYAXp/H4ykUCv39/VNTUx0dHVAz6Ozs/OCDDxgMBsjHOI5C5PTk5AR0apvNJhQK+Xy+Xq9Hbxp0JavVant7e9hBisUiaZZB4RWLxfB30YAW7NtarRYIBE7rlmLwUP0PBoO1Wu3o6KhQKEDfAzHaUqlks9m6urrQo/5N9RvnAQbj2NhYoVCASOjjx4+dTqdKpQoEApFIRKPR9PT02O12nAGGh4ddLlehUNja2sJX83i8cDjsdrsZDEZPT49OpzutVE0Cvx3iSMfHxz6fz+12f/nll/CMEbCHvAG+Sy6X9/X1ffDBB4eHh7FYbHFxEY1ystmsz+fL5XLYbrRaLVhAaKogkUgikcizZ88gDId6rTPDUKvVPT09k5OTNBotEAjMz8+nUikajVYul8HfQE8ck8n0TbWZEcGVSCR6vR4MBzqdnkwm3z5xisgU9j6CICKRCIrNzGYzcmvhcBgJaggcv80uj8OAWCweGRnJ5XIvX75MJpNPnz49ODjQarXQNqDT6ehJ1NPTQ7qSarXaYrGgXEEkEqFnBbwO/AnPzWKxGI1GzN5Wq4UmCYFAYHt7G0cp3L9arUL2UafT2Ww2TJLXltO8DSCh7ff7Z2dn/X4/g8Hw+/3RaFShUPT29l65cgVdnHt6ehDU8/l89+7dg04xmtNxuVy1Wh0Oh5E/ufhJ0mg0iNPDW5uZmWk0Gm1tbRf39PlR4P12qWxraxsYGMCZ74svvjg4OJiZmUFyqtVqMZlMkUjU29v7wQcfTExMDA4OIvloNpuR2GKz2Y8fP97f33/69Cki0IiC/PznPx8eHiaLG8bHx2Uy2d27d589ezY7O1sqlbDOTSYTxPXIISkUimvXruXzeZfL5fF4sEShaieTyTgcDjgSuK1QKOzo6PjNb36jUCg+//zznZ0dNGVkMBgajaajo2NqampiYgKStMQrqsMFGRByAxCJRGjoWqlUnj59ivMivl2r1Q4MDFy9enV4eFgkEjGZzOvXr7e1tX322WcrKytPnz4FJRdUuaGhobGxsZGRkQvCfmKxuK+vL51Oo7HOvXv3kN+BnIXNZpuamvrwww9VKhWDwQB3nEajvXz5EsXIyGfx+Xy0MLx58+bg4CBaJLDZbL1ePzg46HA4wDJHp9kzrjOemNFo/Od//melUvn3v//9+Ph4fX0d5lIoFNpstuvXr1++fLmnp+fdvCj0SAuHw9vb2+FwOBaLmc1mJIXf5uMcDgfNEarV6szMzOPHjx0Ox1dffdVqtaAlPz4+/rOf/ayvr+8CrSUajdbb2/uHP/zh7t27T58+vX//PhmHmJqaotFokUjktclT+K8LCwvxeLzRaIjFYrvdPjU19bvf/e5M7J/L5RoMhkaj8fz5cywfpKHRm6mvrw/5WZvNhnhPq9Xa2dlZX19HYh0fv3r16o0bN1A2+m3kGnEGy2az9+/fR7YB+oYfffTR5cuXSV2Fnp4eKCSsr6/fvXsXRwiVSqXT6QwGg91uf/LkSbVajUajIpHoTZw/TDatVjs6OupwOBAOTKVS/f39pwtGKfwAYTAY0IlWp9M9efLE5XIdHByAG9pqteh0+v9h786e2zrv+/Ef7Pu+gyAAgiu4iaJESdTqTbZjO3bdpE3dNO20mc40mWam05tOL5rr9B/odKYzueiWSRsnsdPYjW05kaVoCSWR4i7uAEkQBIh9PwDO+V18fsaXlSWKIglTJN+vi4xDAQfPOTh4zuc85/N8Hqpk8sYbbwwMDHg8HorYaPEvoVD461//mgaAqSOiqgh0DtNiTGKxWKfT0UjkL37xi48++mhlZYWmS1JhB5FIVJtZQVONn3/+eY7jfvKTn9AywwzDSKXSs2fPUoS0OfXc6XRqNJpcLicWi69cuTI1NXXz5k3KrGtsbOzq6rp8+fLg4GBtieLt02g0p0+flslkhULh7t27v/71r6k/NJlMLpeLVkT2eDxUPuvixYsajeYXv/gFVQSiMkEGg8Fut58+fXpwcLC7u5vKFTzys1Qq1cDAgFAoTCaTY2NjP/7xj+n40yjJ+fPnaV1emvR24sQJvV7//vvvf/bZZ3fu3Ll69SqNzVOqd19f36lTpzweD2W52O12p9Nps9nW1tYCgUAqlaIKMw89bBQIBDqdrqWl5c0339Tr9b/85S+Hh4eHhoZoqozZbG5pafnqV786ODhIQxtP9QiO7smtVuuxY8dGRkaGh4fX1tZmZ2dffvnlp9oIlRAQCATXrl2jZ3F0ytEI64kTJ5577rljx45tc1kDolKpzp49q9VqOY67c+fOzZs3KSee8m/7+/tpDR1a2on5PNCk1etkMhmt4UonOcMwlHE0MzPD83xzc7PL5apd9Kn0SqFQkEgkV65cmZ6evnbtGp2oTU1NPT09r7zyysmTJ2vV2HamluA6MjJy69atSqVC04cuXbr0/PPPnz59WiqVlkqlkydPVioVKkw0MjJCJxtNo+/q6nK5XLRWXSgUoo79cR8nEAi8Xm9PT08gEJienl5aWqpUKvS4CWH3Y9ENHy3NKhAIlErl6uoqrbzIsizFAVSTkmYwUDBHeXJms/nEiRNUeJWSgWjSg8vl8nq9nZ2dNput9oSFJmG88sorjY2NkUgkl8vRoy673f7BBx9Q4VWiUCgcDsfg4KBIJFpfX08kEpQg3tjYqNFoaHo1BWEULNIEcJoUGA6H0+k0wzAUdrtcLnpgRMlGDMMcO3bsW9/6lk6no3XXNx+K7u5uWoqS1rOklEev13vp0iVam4rm5lMdTa/XS9kCNHphtVp7enqq1Wp7e3skEqkVDTSbzTQES4ficd8CfVZLS8vrr7/e09OzurpKJaipYr/b7fb7/VRllvoCt9t98eJFu91+4sQJelygVqv1er3T6fR4PD6fj4pe0y2E3+//+te/HggENjY26Obqi1Nma/cwNO6lVCrX1tY2NjZoborRaGxsbKTlfKk8Ii280t7e/o1vfKNarfr9/tojiMehpeyVSuXx48cZhnG73V6vV6PRfPe73/V6vRSP1hojFAq7urr+6q/+inoBGpSlVLlTp07RPRgdInr46HK5fD5fZ2cnLQz5yJbQH202W39/P8dxtDBvpVKRSqVut7uzs7O7u/vkyZM9PT1tbW1arZbm0VJqSnd39xtvvEFllWp1M2kE66GbEDobaVHozfV8uru7m5uba4lGSqVSIpHQvhw/fpxmVlDVTrvdTuuu0ZASjRpeunRJpVL19PTodLrtd2dU+p22Q1lDRqORxh3pslG7VPT19dEUiPX19VKpJBKJKJ2RZs75fD6GYTo6OmjVhldeecVoNJ4/f752/tdOoba2tq9//es0SU6tVjc3N+/yKgJfAiqwQCsNWyyW1dXVVCpFIw4U01gslsbGRioVRY/RGIahOYKDg4OUQ0LrJygUCq1W63Q6GxsbOzo6aPEyQqcZz/Nut5uqetNEC5FINDo6WlsnnGEYKg1RWw42m83SHSP1Eq2trRKJhLLdaMs0Ok7PiNbW1iiPQiqVUjM6OzsbGhoo5JXJZP39/d/73vfa2to6OztrpTDoUnLs2LG//uu/pqxLKp5IKQevvvpqS0tLIBCgVCta/crn81EPRj8iunmggW0qIF0Lu1taWlpaWuia8rivgKL5rq6uarXa1dUVCoWoiihVz+js7Gxvb6f5UQKBgG7dL1++7HK51tfXM5kMze2mZE6v10u5DbRlpVLZ29v7p3/6p/TKlpaWtra2L66VUbuYtre3U2FyupjSnYbZbHa5XMePH998MXU6nYODg7TeMHURj0Odg9frffPNN7u6upaXl9VqNZUfYD5P26DheXo9zTXq7+//8z//c4vFQtcdhmEo4+jChQs2m42ufaVSie436NpHQwmPO87Umff19X3nO9/xeDz0DEQkEun1+tbW1pdffrm5uTkQCBQKBUodoWXRWlpaNreNYRjK+fza177W19dXKw1MhRx8Pt9LL73kdDo5jjt16hTlR9V+ZTQMR082qMI6PZF2uVwej8fv99fGB5VK5dmzZ//2b//2+PHjFGlscXg3o1X/6Hyj2V90faTvna5WdEfK87xaraYV7GmEqLZIX7FY7OjooCicRt9fffVVj8fT39/v8Xg2Hwp6yHzp0iWdTreyssIwDNVGPAS1vQWPHBGsVCqlUulf/uVf/v7v/56Wo/u7v/u7t956a5cfRmX7aE0vtVpNN09bZGdS9g8tRUY5eVvUYaVmU/U9GurjOO4HP/jBP/3TP73zzjtf/epXT506tXn4kFalolkgWzeD0IpT1IPQRJMdHIEvooFnCnD1ej3VLXlkbEdfSqlUoqmQ2/+11FBtWrqNoRWzHpf5QK2iZ6AajYZmBz6yVfzntWNFn68j9cRHhMVisVZGUKPR7MmqKLVKSfRU5GlLUG/eDs1eolOUDtH2N0Vvr1QqyWSSxttqz082v2xhYeHnP//59evX7969++1vf/sf/uEfaCkiKqy2eU4Snf8zMzPf//73Z2Zm/uiP/ogW4OU4LpvN6nS6Ry4HXXsvnTM0V5ji8t1MRqFT4vr169///veFQuE3vvGNc+fO9ff306p7tDT0497Lsmw6neY4jvZxx1863bRT0s6zU9t7eXl5eHj43Xff/fd///cLFy68+OKLb7zxBt0EHjjZbPb999//8MMPr169arFY/uzP/uzcuXN9fX07+0E9hE7IbDZL68vQVJkttkwdUaFQSKfTCoWCZtE87hymPp8WhNJoNDT94Kc//ekPf/jD73znO9/73vdqle/od5rNZpPJJK2pvnUz6PU0347GkvZwzTwqIUpVsXU63RZP/GgQkTpbegj5tD9nlmWpqkypVKrVSHnkRmg1MSKTyWgK3RdfRvEDNV4ul9PU0if+KvP5PB1J6gr2avCSbuc2Tz3awUbolKMMKBpyYrY9jXILdPGllWsoyWpPNvsQOlHp8FJyOaVO7XKz77333j/+4z/SWOE777xz8eLFVCrFcRyN1DzuFKJjSN8yLUaxg4+mopNUYu5pKx5+OVZWVn7wgx+899570Wj0zTff/MEPftDY2Lj1vcGXOiGJxhpVKpXkc088gjQSSRVOnjgDjAbw6KEGTdXa4sWUF1Ur/fbExtPYJ51he3IFInRMaBmzLepWMp8/aqf/3dkNXy3hjKqUbHE8qVVyuXzrx0CEQu2tE2weej19TfTfO9iRR6p9KdtPsn8kgUBAO76zSYe1oR2O47bfR9DXsZ2TnPaOovkn3vvR10dj0vXoreg8oad+W5+T9FiJbop28/OhTkPwfwvhw0FBPyu1Wk3jHds522kgmS4BT/zG6bEq3btufcLTlUWv12/zZ05DszTEvv15ddtBx0QgEFA1pK1fSUEq9eQ7+CwalKVajTKZbOvLDR1DGsLY+vjQK+lKup1fZe1I7rI3eAidIbvsHGrXPvpG9qpt9JXRo8i9GrN73AfRs006tvXo9jd35lu8TCqV7v5bFnxeVZ3ZVM/qoPtSw246A6jgw3ZeT4f4iZ3R5u1vHkXbOuze/mYJ3UBv//XbVBs+f+IrKXLazRMW2sJ29oJaRX30E1/5tE2qx5GsNXj322EYhu7Od/z2bX6hm9+1/U8UfL44zna+Gjom9cuEo2vJdr5NSnba/SfW6WcIXw7h56U2tzmLo3YOb+fXQSFX7TTbeliBeZqfOb2ehoq28/qnsv1u+aEL3A481cHczv7u7MjU6UjuSefwVKfc9tW+5T3pBh/naUOmnX3ENi9we/V1HL4O/9kargcAAACAZ4TgSeUi4KkcttuIGhoY9nq9p0+fptlXhyATHw4HmUzmdDrb29tpWbKtX0wpKx0dHVQL8nFJll8CGucwGAy9vb0CgcDpdD7VvH6ALxPVlfP5fFQVhHJa9rtRAAeP0Wjs7e2lmtyU7A67cWjDbsqjorpUZrO5tmIwwL4zmUyXLl06fvx4Npt9YqlyKpvw7W9/u1gs0hp++3UDSckwHR0df/M3fyMQCMxm8xYTOgH2FxUnpcI4VDnn8D2tBvgSdHZ2fve736UcJ1qmGnbj0HZD9EzE4/F4PB6mDlOGAXaMCrRvp9wvDTCrVKqOjo7aX+rcuq0aIxaL9Xp9bcADPyt4ZlGGq06na2pqYnCuAuyUwWCgupD4Ee0J5HYDAAAAANTdoR3tJrg5g2fW9k/OZ+o0fqYaA7A1nK4Au4Qf0d7CaDcAAAAAQN0h7AYAAAAAqDuE3QAAAAAAdYewGwAAAACg7hB2AwAAAADUHcJuAAAAAIC6O+QFBAEAnn08z9N/7KZWV20ju9wOAADUCUa7AQAAAADqDqPdAAD7ZmNjIxQKZTKZcrnc3t7ucDh2sBEa515bWxsbG5PJZA6Hw2KxGI3GvW4sAADsCsJuAIB9Ew6Hb9++HQwGc7ncH/7hH+4s7CaBQODHP/6xwWA4ffr0sWPHEHYDADxrkGQCALBvOI6rVCqVSqVarW5Ozt7ZpqrVKm2K47i9aiEAAOwVhN0AAPtmD8Nunucp4OY4bpebAgCAekDYDQCwnxAiAwAcEcjthsOpUqmUSiWRSCSRSAQCgVCIO0x4FvGf2++GADzTyuUyy7ISiUQqle53WwB2DrEIHE75fH59fT2ZTJbLZeS5AgAcaPl8fm1tLZVK7XdDAHYFo91wOCWTyampKb1e73Q6TSaTVqutx6c8NEiJNUpgBzDUDfBEiURibGyMSv2o1WqFQlGPT0GXDvWGsBsOp42Njbt375rN5nw+LxKJ6hR2A+wekkwAnigcDt+4caOpqUkgEHi93jqF3QD1hrAb/g+WZePx+MbGRjQazWQyhUJBKBRKpdKmpiaXy6VSqWQy2X63cVvkcrnVas3lcuPj42az2e1279WWeZ4vFovZbDYajcZisVgsViqVGIbRarVGo9Hj8djt9r36LDj0+E32uy1wqNAZxbJsLBbb2NiIRCLZbLZYLIrFYplM1tzc3NDQoFQqJRLJfrd0WxQKhcViKRQKk5OTGo3GZrPt1ZZ5ni8UCplMhrr0RCJBXbpOpzObzY2NjXv4WQAIu+H/KJfLKysr4+PjIyMjy8vL0WhUIpFotdrXXntNKpU6nc6DEnbr9fqOjo579+6Njo52d3fv7cZzuVw4HL5///74+Pj09HQymeQ4zuv1tre3X758GWE3fMnoUbhQKBQKhXgsDpuVSqVAIDA2NjY8PLy6uppIJORyucFg+OpXv6pUKsVi8UEJu6lLn52dHRsba2lp2duN53K5tbW1kZGR8fHxmZmZVCrF83xzc3N3d/fzzz+PsBv2EMJuYBiGSafT8Xh8aGhoamqqWq3K5fLu7u6BgQGBQJBKpWKx2NTUVCAQ+IM/+IPe3l7mIGS8abVan883MzOTSCQ2NjZisZhard79PcP09PTo6Ojc3Fw0GnU6na2trT09PQKBoFKpLCwsTE5O6vV66q/NZvOe7AjAE9G4Jip2Q008Ho9EIkNDQ7Ozs0KhUKlUnjx58vz58wKBgB5mjo2NraysvPXWW36/nzkIXbrBYOjs7AyFQsvLy5FIJJlMKpXK3Vc1mZiYGBkZWVxcjMfjTqezs7Ozv7+fYZhyuTw/P3/v3j21Wi0UCj0ej8Fg2Iv9gKMOYfdRR5fq9fX16enpX/ziF3fu3GlpaTl58mR3d7fP5zMYDMvLy1NTUz/84Q8XFhYGBwe7u7sPRDE+lUqlUqmMRqNYLN7Y2FhYWHC73UajUSQS7az9pVKpUCiMjY29//77CwsLpVLp937v99ra2jo7OzUaTblc/u///u/f/OY3U1NTMpnMZDI9FHZ/MRh69q9zcOAg7AZarDQUCo2Ojr733nvj4+M9PT1nzpzp7+93u906ne7BgwfDw8M//elP19fXBwYGOjo6vtgXPYP9lUaj0Wg0d+/eZVl2fX09GAw2NDTo9fodP+EplUq5XG5kZORnP/vZ6uoqz/Nvv/223+/v6OhQKpWlUulHP/rRRx99ZLFYtFqtXq/fIuymYy743IG4RMJ+Qdh91LEsm81mf/vb3/785z9fW1szmUyvvPLK2bNnGxoaNBqNSCQyGAw0f6VYLBYKhWKxKJfLRSLRfjd8W/x+/9tvvz01NfXv//7vr7322rFjxwwGw87GvFdWVn73u999+umnt27d6unpOX78+Pnz59va2tRqNYXyRqPR7XaLRKJUKlUul7+4hc1Xsn2/hsFhhbD7iMvn88lk8tq1az//+c9TqVRjY+PLL7985swZh8OhUqmop2pqapJIJNlstlKpPG47tRPpmeqs2tvb33jjjaWlpf/4j//4yle+0tvbq9FodpYns7S0dP369d/85jf37t0bGBgYGBgYHBxsbm6m3BuhUGgymVwul1AoTKfTj+zSa8rlcjqdFggEcrlcKpWisjhsAWH3UZdIJObn52/fvn316tXGxka/33/ixIljx44xDMPzPMdxpVIpnzFZ7c4AACAASURBVM/zPE/rzmy+qNM8MFqYJpVK0TQUjUZjMpl2FpfvecTgcrnkcnkgEJicnLx//z7DMJT+odFotj9GQju4sLBw5cqV4eHhaDTq8Xief/75trY2q9XKMAzLsnRDwnGcUCikA0XvpdHHdDqdTCYrlUq5XC6VSjzPy+VyGkGRyWQHJbcSnnGYmgkMw8Tj8YmJiVu3bt24caOzs7Orq6u/v7+rq4thGOquaQBFIBBIpdKHxmULhUI+n8/n8yzLikSiarVaKBREIpFSqdTr9Tqd7mkbs+dnY2Njo0QiCYfDY2Nj1KV7vV6j0Uh3FNvv0guFwszMzEcffTQ1NZVOp30+3/PPP0+bYhiGrnrFYpHneaFQKBaLH7dlnuer1WoikZicnJRIJJSLgrAbtoCw+6gLBoMffPDB2NhYqVRqb2+/cOGCxWKhf6pWq6VSaXJy8tq1a6lUym6363Q6uVy+uafmeT6bzYbD4Tt37qytrQmFwu7u7ueee27H1Z32tptWKBRWq/XChQtqtfru3bsTExPnz5+ni9D2x7xLpVI4HJ6amvrtb3+bz+cbGhra29v9fr9araYXpNPpQCBA81BfeeWV5uZmjUZT251KpTIzM3Pr1i0KvsPhMMdxTqeTnvzabDakDMJe4XmennE/UyOU8GVaWlr6xS9+MTY2Vq1W/X7/hQsXrFYrnQ80QDA+Pn716tVisej1elUq1eZTJRKJzM/PLy0txWIxlUqVz+cXFhZUKlVTUxONB++gPXvbpatUKqfTefbsWaVSOTIyMjY2duHChWPHjvn9/u0Hu/l8fnl5eXJy8u7duxzH+Xy+1tZWn8+nVCrpBclkcmFhYWxsbHx8vLW1dXOX/hCe51mWXVhY+NGPfqTT6d58802RSPS4FwMwCLuPsmq1WqlUVldXb926tbS0RGO68Xh8eHg4EAjQNMFSqTQ3NxeJRJqamux2u8PhEIv/3zlDpQZrc8BXVlZ0Op3Vaq1Wqztr0vLy8uLiYjqdzufze7SXDMdx0WiUBrypJGIikchmsz6fr7GxcTtbyOVys7OzDx48CIVCYrFYo9GEw+HR0dHaC9LpdDgczmazXq+3paXF5/PVIvJUKrW8vLy0tJRMJqVSqdlspqGRYDBImYUnTpw4efIk1aDYq12Gg2hPBqppC5RguheNgoOERrKXl5fv3LmzvLxcrVaLxWI0Gr13797c3BzDMCzLFovFBw8epFKp5uZmj8djsVjoVKFJPjMzM1euXGEYhqqdMAwjEAhWV1cXFxclEonL5dJqtSqVavtNWlpamp+fz+VyxWJxr3aT47i1tbWlpaXR0VEauU8kEoVCwePxOJ3O7Wwhm81OT08/ePBgfX2ddmd1dXV4eJj5PKMmkUiEQqFisdjW1tba2up2u2sR+UPoeN6+ffvOnTsejyeTyWydjgKAsPvoqlar2Wx2bW1tcnIyFotRn1soFCg7TSQS0TQRvV5vtVpPnz597NgxyqmoWV5evnv3rlAoTKVSc3NzsVhsl6VCRkZGfvzjH8/NzYVCod3t3P9DDwHL5XIul6P+emFhYXFx8fXXX99m2J1Op8fGxubm5mid+WQy+cknn4yPj9deQEW4mpqavvGNb/T19fl8vtrNydra2meffVapVBwOR29vr8/nKxQK09PT77777sTExO9+97tSqXTs2DGJRIKw+8jaq+QQ2ohAINjxvGE40EqlUiwWoyg5kUgwDDM+Pp5Op6VSKSUrU5duMpnsdvuZM2d6e3trM785jmNZlnrgV1555bnnnuvr65NIJG63+1e/+tVPfvITqg3V1tb2VGH3nTt3/u3f/m1lZSUaje7VbtIjRBq55zhudXV1aWlpbW3t5Zdf3mbYvblLLxQKkUjko48+GhkZYT4Pu0UikVQqbW5u/pM/+ZOenp6GhobN402b5XK569evf/LJJ6urqzabDSle8EQIu4+uUqlElfXy+bxMJjMajadPn+7r6xN+jq7iOp3OaDS2tbU5HI6HnuIZDIbW1lahUBiNRhUKxe57nMbGxgsXLrS1tSWTyV1uqobSYBKJxOLiYrlcdjqdHR0dfX19LpdrO+9lGCafz6+srEQikWq12tLSMjAw0NDQUEvFYRiGlp9wOp1ut9tut2++96AFjXO5nEKhaGpqotHuQqHQ0tKytrb24MGDQCCwurpqNpv1ev1e7TIcWRzHMQyzRSoqHGKlUml9fX1jY6NQKGg0GqvVSrWnmM9rujMMw/O8Xq+3WCwtLS1Wq7U2sYRm8hQKhWQymUwmc7mcVCqlV8rl8mw2u7GxEQqFGhoanqpJHo/nhRdeiMfjmUxmr3aTZsvE4/FAIFCpVFwuV3d39/Hjx2nd+Ce+l2GYQqGwuroajUY5jmtubqZkP8rqph+OWCyWSqUul8vr9VoslkcOJ/E8H4lElpaWcrmcQCBAESHYJoTdR1epVIpEIolEgjri5ubm3/u933vrrbdqL6AOaIvrt8fjodUfA4HAp59+Gg6Hd3mx7+vro9mce4jjuFAoNDMz88tf/jKTyZw7d66vr6+zs3P7A/Msy0YikXg8znFcV1fXt771LVrgrfaCLQ5UKpV68OABpZScPn1aIBCIxWKDweD3+xcWFj777LNwOBwMBmUyGcLuo6mWir37QLk22k1Dm3vSPDhAisViOByOx+M8z1sslt7e3q997Wsvv/xy7QVbd+k0fZBqMa2vrxeLRaFQKJPJpFKpQCDIZrORSKRQKDxVkwYGBk6ePLmbnfoijuOWlpamp6c//vjjYrFIud3t7e3bz+2m+5N4PF6tVnt7e//iL/7C5XLRs9zNB2frnyTHcSsrKzMzM1Qchm5gkN8FT4Sw++ii4Q26VMvlcqqqse9dxt42IJfLpVKpzz77bGJiwufzud1uSlJ/3BPDJ6KUR7lcvs122u32ixcvxmKxarXq8/lqf69d/ziOo9yVnbUHDjqJRKJWq+mZzBbV3J6IkqlYluV5XqFQoDzO0VTLVnraLp0i7JdeesloNNpsNpfLZbPZcrnc/Px8KBSqVqt2u31zUsr27W2Xnk6nY7HY1atXHzx40NbW5vF4vF6vzWZ7qtpZm9O6nrZLJ5TlsrKyEggEGhsbK5XKjRs3mD2aoQGHG8Luo6uWAyoQCGQymU6no1GNL76S5/lisVipVGo5gnWKzvdws9T3JZPJxcXFkZGRhYWF8+fPnz9/XqVSPW3MvTlZlg7UIy9mlDdJMXStLKDVaj179iwNEXk8ntrsJZZlq9UqlaZCYvdRJpfLTSYTLQdbKBQqlcoO5tfyPE+1KelMU6lUCLuPIHrQQQEolSh9XNjN83yhUKhWqzKZjFKSRCKRSCQ6ffr0qVOnqNRppVIJh8Ozs7OxWEyn03k8Hr/f/7QP5fa8S4/H4zMzM6Ojo6urqy+++OK5c+cUCsXT1qvdXO2H7k8eGXZXq1UqPLC5Syc0j5NSNCn9csfFu+CoQdh9dMlkMqvVqtfrqbOm/veRr6xWqzTp2+fz2Ww2Wk3gS27tzkxNTf3yl780GAyvvfaaz+dTKBQ7CHAlEonJZNLr9VTJ5HGrBRUKhUwmEwgEMplMV1cXJRoajcaenp5qtcrzPOUOMgyTz+fn5+ej0aher/d4PB0dHVqtdpd7CgeUXq9vaWn57LPPFhcXV1dX4/E43dc91UbK5XI8Hl9fX4/FYgzD2O32Wi0dODpkMpnFYql16Vusa1apVCYnJ9fX1/1+P0WNtVfSJMWVlZXV1dW5ubmRkRGFQvHOO++cO3fuWahIPTEx8bOf/ayhoaG/v9/n8+3sCS0VldLr9YlEQiKRPO6Kls/nU6lUKBTK5/N+v99ms9X+aWFh4c6dOxqN5rnnnrPZbPS7A9gOjLEdXVKp1Gg0WiwWk8kklUpLpVK5XKYAkV7AcVylUkkkEoFAgNYm2NjYqFQqB+IhGsuyqVQqGAxOTk4ajUZapO2Ly0NsjRL1VCqV1+ul4olUEaWWDECPFGm1oGAwODo6Ojs7u7q6WsuAVKlULpeLnoRqtVqO4/L5fCQSefDgQTabbW9vb21tpdXj9v4QwEGgVqtdLpfBYBAIBMFgcGpqilZW2uavjKo6pFKpqampYDBIT8yNRqNcLq93y+FZQ2G3xWLR6XRCoTCfz5fL5c1pD5TStrGxsbCwMD4+PjExkUwmN2e4UQibz+c3NjZWVlaWl5ej0ahEImltbXU6nfv7FIXq2y4tLU1OTprN5rNnz9rt9qd9VFjr0puampxOp0gkKpfL+Xz+i116MplcWloaGRmZnZ0Nh8O1Lp2uLKFQaH5+XqfT9fT0bH4CgNxueKKDMWYJ9SCRSLRabWNjY29vbywWm5+fj8ViLMvWRj6o7OvU1NS9e/fm5+cpefRpI9f9QkvY5HI5i8XS2Njo8Xh2HIjo9foTJ06srKzcuHFjY2Njamqqq6tr84JtmUwmGAzevn375s2bXV1d3d3djxutLJfLa2trMzMz4+PjarX61Vdf7e3t3Vmr4HCg3O6enp5wODw/P5/NZhUKhVqt3mKocjOe5/P5fCAQ+OCDD1ZWVk6cONHb27vN98IhI5PJbDab2+1ubm6uVqtzc3OpVGrzCyjEHBkZGRoaikajlFkhk8k2d+kCgUCj0TidTqlUKpFIKCSdmJig2fP7KJFIzMzMpNNpu93ucrkcDseOu3SDwTAwMLC2tnb37t2NjY3Jycnm5ubNxQdTqdTi4uLt27dv377d399//Pjx2mel0+lgMJjL5Uwmk8Fg0Gq1Dx1kgK0h7D66hEKhVCqlAk937tyZmpoaGxtTq9U0KTufzxcKhUKhEI1GU6mUxWIxGo1Go/Fx+d/k2ZlQkkwmp6amyuUylT7czbJhSqWyqampt7d3YGCgWq1+/PHH8Xg8EonQ0FEul8tkMrQCpdVqbWxsdLvdXxy9phEUWrd5aWnJ5XL5fL5Tp041NjZidOQoo5za9vb2YrF469atSCRy/fr1cDjscDgsFovZbKbo56F3lUqlYrGYSCRoVHJ+fj4cDhsMhsHBwY6ODlQyOZpEIpFCofD5fC+++OLU1NTKysrw8LBUKtVoNDT4TQuer62tFQoFm83mcDgMBsND+RUUdjMMo9PpKPticnJyYmLCbrc3NjY6nU6TybQvexePx8fHxzmOO3bsWENDw27SqFQqVVtbW19f3+TkZLFY/PDDD2lRBZp1k8vl0ul0KpXKZrMOh6OxsbGhoUGpVNLsnWg0Ojo6KpVKOzs7qQKjQCCoXfg2T9ZExw6PhLD7qPN6vW+//TbP80tLS1evXh0aGmpvb5fL5aurq+l0ulAo+P3+vr6+3t7e5uZmmo94IHqTeDw+NjZmsVj6+/s319jeAZlMZrfbT548ybLsxx9//J//+Z8PHjxob2+vVCrpdHp1dVUikdjt9sHBwbfeestoNOr1+kc+is3lcqFQ6Pbt25FI5PXXX+/p6WltbX3c4mdwpDQ3NxuNRp7nb9y48d577ykUiv7+/hMnTpw4caIWGNHvjq7ouVwuEoncv39/ZGTk3r176XS6r69vcHDw4sWLFosFMfdR1tLS8o1vfONnP/vZwsLCr371q5s3bzY1NUkkktXVVUqQ6+np6e/v9/v9tDj8Q2+nsFulUnEcZ7fbm5qaCoXCu+++KxaLxWLx5cuX9zHsHh0dbWpqGhwc3OayOI+jUCgaGhoGBgYKhcK1a9f+7d/+7fjx483NzZRAsrq6SuswnD179mtf+5rRaNRqtWKxmOO4UqkUCoWGhobOnDlz9uxZpHLBDiDsPuqo1tjp06dFIlEymSwWizqdTiQS0YCHVCr1er3Nzc1ut3ubve0zMtqt0+laW1ttNltLS8suS2JTZQm73X7q1CmxWGy1Wk0mk1qtrlQqtICOSqUymUx+v9/tdkul0i/OOioWi7lc7v79+zMzMxaLpbW1ta+vz2QyZbPZTCbDcZzBYNjNeDwcdHK53Gg09vb2isVivV5P61hdu3ZteHhYq9VqNBq5XC6RSKhUDs0lSCQS6XQ6l8tZrVa/33/q1Knu7m6TyYRQ4MiiGzO1Wi0Wi8+ePSuRSKgqpUajEYlEBoNBKBTK5fKmpibK1abl30kul0skEsvLy2tra62trY2NjUqlUqPRSKVSnU7H8/zKysrdu3f3fF2F7TMYDF1dXV6vt7W1dfddulQqbWhoGBwcVKlUTqfTaDSqVKpyuexwOFpbW9Vqtdls9vv9Lper9riJ1hKKRqPRaHRsbIz6eRp8mZiYSKVSIpHo2rVr8Xi8tbWVpgPtzZ7D4YKw+6ijZ9xnzpw5depU/HPUU9MawiKR6EAMbz/EZrOdPXtWq9WaTKY9mQZEOTYdHR1f+9rXwuFwLBYrl8tqtdrn82k0mq1n0uTz+Wg0euvWrampqW9+85uDg4NKpZLmqubz+Wq12trairD7iJNKpd3d3T6fr7+//+7dux9//PFvfvOb0dFRuVxOqV8UFtCSq4VCoVQqNTc3+/3+l156aXBwsKWlZXMUBUeWWCxWq9UXLlw4d+7cxsZGPB6nheINBoPJZDIajY/s0tPp9NLS0pUrV27cuPH1r3+dHmyqVCqFQqFUKqm/Gh8fj8fj+7FPDMMwDofj0qVLZrN5l0PdNWaz2Ww29/T0/P7v/z6tnlOpVLRabVNTk1qt/mKXXi6XE4kErbh569atW7duMQzDcVyxWEwmk7FYLJvN/s///M/8/Hxvb+8rr7yCsBseCWH3UVfrWYRCoVqtpnFujuOoEOlTrZ/37CR2MwyjUChsNhsNVOzJM/faosEMw1gsFrVazXGcRCKpFSV8XH1chmEWFhZu3ryp1+tfeuklnU4XjUYZhllZWZmYmDAajW63GxPggM4fKm3W19en1+vPnTsXDodTqVQmk6EqQ7WiEwqFQqVS0UQCj8fjcDiUSuVBvD2GPbe5S9doNGKxmOZ/y+Vymmv7yC49k8ksLCzMzc3Nz88Hg8FIJKLVaikFpVKpFItFqqO6j89SlEqlw+FQKBR7dZ7XunSFQmGxWDQaDc/zUqlULpc/skunbMPBwUGbzVYul+mPLMtGo9GJiYn//d//NZvNr776aldXV1tb277PQIVnFsJu+P8JBAKFQvFUNf9Zli2VSjzPZzKZUqlUqVRKpVI+n0+n0wzDiD9XtyZvha4xe75Zejggk8m2ObJYKpWy2ezExMSnn376/PPPNzU15XK5eDxeLBYXFxfv379//Phxv9+PxU2ASCQSg8Gg1+vb29tZlmVZNhgMUh23TCbDMIxcLtdoNBaLxWazUb7TfjcZnkW1SnnbLE5aLBZppngoFIpGo4lEolQqUQ+fzWaLxaLBYPB4PPv4UO5pL0/bRBep7VwsqD4j3RUzDMPzPMuy2Wx2cXGR5/lr166ZzeYTJ050d3dTMv2eNxUOB4TdsHO0nkI+n19ZWVlaWopGo9VqdWRkRK1WO51Oq9Xa0NCwg8WED5PZ2dlf/epXN27cuHv3bigU+vDDD2k6fLVazWaz8Xjc4/HQCkT73VJ45lBBEqfTqdPpaJlYhmGEQqFEIpHL5QqFAmncsFcompyenh4ZGVEqlVKptFwuh0KhycnJyclJgUDQ2dn5+uuvezye/W7ps4Ln+WAwODc3t7CwMDk5mcvlNjY27ty5UywW0+k0crvhcRB2w87lcrn19fV0Oh2JRFQqld1uVygU1Wo1FArRkPAuS4gcAplMZmlpKZPJqNXqTCZDA5Y1MplMo9E8rvIJHFn0dJserRgMBiRtQ73pdLqWlpaenp5AIKDT6ahwdTabHR8fz+fz3d3dp06dOnPmDJ6ubM48yWQyGxsbVLeb6sbWFo232+3710Z4piHshp3TaDSNjY20JI3H42FZViQSyeVypVJpMplQVIFhGKfT+eKLLx4/fjyXyz30T/QUuK+vb+tS6AAA9SaTyUwm0wsvvODxeEKhEC1gybKsWCz2+/2vvfZae3u7zWbDAEGNQCDQ6/Vut1un07nd7oGBAZFIpFarDQaD2WzGA0x4HITdsHNardblcrEsW1tZt0apVKpUKoTdBoOhu7ubZdlqtfrQP1HYbTabMZ8SAPYXpTh7vV6TyTQ9PU2TxTmO0+l0Pp+vs7NTr9cjlNxMIBDQXFWbzbb5CkjVCHCs4HEQdsPOabVapVL5yOolAoGAyl1/+a16ptAq31sUeEHMDQDPCJlMJhaL+/v7e3p6KJQUiUQ0lwCd+Rfp9Xqqf/LQ34VCITp2eByE3bBzlHu63614puEQAcBBQWMlyCTZDoFAsI+luuDgwv0rAAAAAEDdIewGAAAAAKg7hN0AAAAAAHWHsBsAAAAAoO4QdgMAAAAA1B3CbgAAAACAukPYDQAAAABQdwi7AQAAAADqDmE3AAAAAEDdIewGAAAAAKg7hN0AAAAAAHWHsBsAAAAAoO4QdgMAAAAA1B3CbgAAAACAukPYDQAAAABQdwi7AQAAAADqDmE3AAAAAEDdIewGAAAAAKg7hN0AAAAAAHWHsBsAAAAAoO4QdgMAAAAA1B3CbgAAAACAukPYDQAAAABQdwi7AQAAAADqDmE3AAAAAEDdIewGAAAAAKg7hN0AAAAAAHWHsBsAAAAAoO4QdgMAAAAA1B3CbgAAAACAukPYDQAAAABQdwi7AQAAAADqDmE3AAAAAEDdiZ/4ikqlUigUlpeXp6amvoQGAQAcLOFweHl5OZVK0f/leX5/27NXisViOBxeXFyUyWQikWi/mwMA8GxZX1+Px+PlcrnW7T+x/39y2M2ybCKRuHfvXrlc3oM2AgAcLslkcmVlZXV19dAE3CSdTk9NTRWLxUAgIBTi0SgAwP+RTCaDwWCxWOQ4bptv2VbYnUwmh4eHQ6HQ7poHAHAIFYvFdDq9vr5++MLu6enpcDis1WoFAsF+NwcA4NlSLBb3Puwul8upVGpkZATdLgDAFx2yaLsmnU6n02n6b/T/AAAP2UHn/+iwWygUSiQSj8fzwgsvsCy764YBABwJvb29Pp9Po9Hsd0N2SCQSORyO7u7uarUajUb3uzkAAAdDb2+vSqV64jSYx4bdUqm0qanp8uXLlUqlDs0DADiEXC6X2+0+0GG33W7v6enR6/WZTGa/mwMAcDB0dHRsJ+wWbDFCHovF1tbWDuvzUwCAPadSqdRqtUajUSgU+92WnahWq5lMJpPJ5HI5TKMHANgmnU7ncDgkEsnWL9sq7AYAAAAAgD2BmlAAAAAAAHWHsBsAAAAAoO4QdgMAAAAA1B3CbgAAAACAukPYDQAAAABQdwi7AQAAAADqDmE3AAAAAEDdIewGAAAAAKi7Ry8OT7LZbCqV+tKaAgAAAABw4CgUCp1O98TF4bcKu5eXl3/3u99Vq9U9bRgAAAAAwOHh8/lOnTqlVCq3ftmjw26O4ziOCwQCH3/8cblcrkPzAAAAAAAOg8HBwe7ubrlcLhRulb/92LCbZdnFxcVPPvmkWCzWp4UAAAAAAAeeQqF4++23dTrdTsJuhmF4ni+VSqlUqlKpyGQyp9NpMBjq0E4AAAAAgAOGZdlQKJRIJCqVSj6fr1arPM9v/ZatcruJRCLR6/XHjx9vb2/fo3YCAAAAABxg6XT6+vXr+Xye47htvuXJYbdMJqOw+8KFC7trHgAAAADAYRCNRoPBYDAYLJVK23zLtka7tVqt3+8/d+7c7poHAAAAAHAYrKysfPLJJzKZrJbPLRAItn4LlssBAAAAAKg7hN0AAAAAAHWHsBsAAAAAoO4QdgMAAAAA1B3CbgAAAACAukPYDQAAAABQdwi7AQAAAADqDmE3AAAAAEDdIewGAAAAAKg7hN0AAAAAAHWHsBsAAAAAoO4QdgMAAAAA1B3CbgAAAACAukPYDQAAAABQdwi7AQAAAADqDmE3AAAAAEDdIewGAAAAAKg78X43AAAAdojjuFKpVK1WpVKpSCQSCoUCgWC/GwUAAI+GsBsA4KBiWfbevXvxeLyrq8tms8nlcpFItN+NAgCAR0PYDQBHEc/zDMNUKpVqtVqpVDiOEwqFYrFYKpUKhQcm+65cLi8tLQWDQbVaLZVKrVbrnofddKBKpRLLsgzDCAQCqVQqFosxsg4A8LQQdgPA0ZXP59PpdDqdZllWJpPpdDqr1XqAwm6BQCAQCIrF4uLiolQq1ev1Uqm0Hh8Ui8XW19d5npfJZBaLRaPRyOVyhN0AAE8FYTcAHC0syxYKhWg0ura2lslkcrkcz/Mcx5XLZY1G43Q6nU5nQ0PDgYgphUKhyWTSaDQLCwtCobC9vV2lUjEMs8vG0wh3JpNZX1+Px+PxeLxYLBaLRZ7nBQKBRCKx2Wytra06nQ7BNwDA9iHsBoCjpVAohMPhGzdufPLJJ+VyWSQSNTQ0yGSy5eVloVBos9kuXrzodDoPRDQpFou9Xm8ikRgeHmZZ9qWXXtrDjUcikc8+++zOnTv3799vbm5uamrieT6TyczNzXk8nnfeeaetrU0mkx2IAwUA8CxA2A0AR0UmkwkEAtPT02NjY7FYTCqVejweh8NhsVhEIpHD4Zifn793757NZnvxxRclEsmzPz1RJBJZLJaGhgaNRpPP5x88eMAwzG7uGTiOy+Vy0Wh06nM8z586daqpqcntdjMME4lE1tfXs9ns7OysWq02mUx7uT8AAIcawm4AOCpSqdTNmzc//vjjK1eudHd3v/766xcvXjxx4oRAIKhUKvl8/v3333/33Xfb2tpYlhUKhc9+2C0UCg0GQ0NDQ0NDQyQSGRkZkUgkDodjxxvkOC6ZTE5MTPzrv/7rxMSEUCh84403/vIv/9JkMqnVaoZhgsFgMpkMBoOzs7Nms7mrq+vZP0oAAM8IhN0AcPixLLu4uHjv3r1f//rXwWDQ5/OdPn360qVLbrdbLBYzDFMul7PZbD6fFwgEYrH4cUPdlUqlXC4nEol8Pm+1WrVa7Ze+K/8HjWobDIYLFy6Mjo6OjY1Vq1WFQuF2u2025AZuggAAHRVJREFU29NurVwuJ5PJTz/99NNPP33w4IFer3/uuefOnz9vMpkUCgUdEJ7n6UCZTCaJRLL57dVqtVgsJpPJ9fX1UqnEMIzJZDKZTCqVSi6X79EeAwAcYAi7AeCQ43m+WCxOTk5+9tlnv/3tb0Ui0eDgYF9fX29vr1AopOVmUqnU8vJyPB5Xq9UajUYikdTqmVSrVZZlqchgoVDI5/M0F1Mul+8s7Kbpm9VqleO4PdlBoVDY2dkZj8c/+OCDXC6nVCrL5bJMJpNIJBKJhIr9bWc7hUIhEolcvXr1gw8+qFQq58+ff+mll/x+v1wup31nWTaRSCQSCZZlNRqNUqmkuJ/n+Wq1WigU4vH46urq/Px8NputVCoNDQ2NjY12u91kMlHZwT3ZXwCAAwqdIAAcfqVSaXR09Pbt28lk0uVy2e12hmHm5uZ4ni+Xy2tra4uLi6Ojo9ls9uzZsz09PZtzozOZzOTk5Orqajwej0ajkUhEp9PZ7XbKdd6BXC63sLAQiUQymcyeRN4U9YZCoYaGho2NjZ/+9KfT09NdXV0tLS0ej8fpdFJ+yBMFAoGhoaFgMMiyrNFoVKvVmUxmdXV1Y2Mjn8+nUqmZmZmZmZnFxcXGxsZjx441NTVRQF+tViORyPLy8sTEBA2EMwwTDodHRkbS6fTAwEB/f39vb6/Vat39zgIAHFwIuwHgkCuVSslkcm5ubnZ2tlgsUq3reDw+MTEhEok4jltbWwsGg2traxaL5fz5836/f/NaMCzLxmKxUCiUSCSmpqbu37/f3t5O1bJ33J5QKLSwsBCLxSqVyl7tZrVaNZlMoVDo7t27VB6xVCqpVCqz2bzNLaysrAwPD6+trVUqFYVCwTDM6upqsVgUi8XFYjGTyTx48GBtbc1gMLS2tra1tdlsNjpK1Wo1EAjcv39/ampKrVb7fD6JRJLJZEZGRoaHh9PpdKFQsNlsBoNBLBaj8gkAHFkIuwHgkIvFYouLi7FYrFQqiUSiXC43NTUVi8UMn9PpdGfOnHnppZdMJpPdbtfr9ZvfrlQqfT6f0+mUyWQffvjh+Pj47gNHnuepNvYeoqx0sVgsEolo1mMmk6lWq9v/oEgkMj09nUqleJ5nWXZtbe3mzZtms9loNGq1Wq1WOzg4SHG8zWazWq21pBGWZUdHR2/evCmVSr1eb0tLi1qtPnbsmEQioYcJ169fP3XqlNvtVqvVmIIJAEcWwm4AOOQymUw0Gs3lcgKBwGAwNDY2tra2ms1mpVKp1+sNBoPRaKRQ8qGsbiKVSm02m1Ao1Gg09+7d233MTRvked5sNu9VejfDMIlEYmVlRS6Xu91uh8PR1NTU1NRkNBofmvj4SBSap1KpcDicz+cVCkVra6vP5zMajQaDQf85s9lsNpsNBgONhddUq9VwOLywsGAwGJqbmzUaDVVT6ejomJ+fX11dXVlZCYfD6XRaLpcj7AaAIwthNwAccpQgUalU5HK5y+U6d+7cO++8Y7FYqESgSCSiQWIKuL8YVYvFYr1ez/P8Xi0ar1Kp/H5/S0tLtVrdkw2SsbGxubk5lUrV39//3HPPnT17VqfTqdXq7S8XXyqVstlsuVy22+2XL18+f/68zWajQHnzgfrizEiatErrWbpcLpZl6e9Go9Hj8Wg0mo2NDfpX1PkGgKMMYTcAHHJisVgmkwmFQolEYjAYbDab0+ncfsazUCgUCoU0HrwneckikUipVO5+OzW5XC4QCFBOtsfj6ezs7O7udrvdFCtvfztisVgqlYpEIplM5nQ6m5qa9Hr9dgbLpVJpb28vy7Icx3V2dm7eu9oREwgEe3XfAgBwQCHsBoBDTi6Xq9VqKsWt0WhUKtUhi/9SqdTQ0ND09HSlUmltbX3zzTelUukO9lEmk2k0mng8LhKJdDqdRqPZZtQuk8kuXbrU19fHMIxardbpdPT3crlcKBQqlYpIJFIoFHK5/JAdeQCAp4KwGwAOOZ1O53Q6tVqtWCwul8vlcvmLswxpjiNV0LNYLF1dXWq1em/HpOuB47hSqRSNRsfHx4vF4qVLl3p6emhofwdbM5lMXq83Ho/TlEqWZTcPddNBKxaLtD78+vq6y+Xq7e0ViURCoVCn01HCN93eVKvVarW6tLQ0MjJCuT1NTU1msxmluwHgKEMPCACHnFardTgcZrNZpVKVSqVcLseybLVaFQgE1U0qlcrc3NxHH33k9/sbGhokEsmBCLvT6XQ4HA4EAlar9ezZs42NjTvYDqWCWCyW1tbW+fl5lmXT6XQmk5HJZAzD8DxfqVToKCWTyZmZmfn5+UAg0N/fT4vDC4VClUqlUqlqG8zn8+l0emlpaWZmxufz9ff3e71eg8GwVzsOAHAQIewGgENOLBar1equrq719fVwODw3N7e2tiaTyVQqFS1/QzY2NgqFQlNTU3t7u9VqfahYx2Y07rvnFQB3gG4VFhcX3W631+ulKHnHmpqaBgcHx8bGpqenR0dHLRbL6dOnxWJxKpWiEe5IJBKLxVKplE6nu3jxYktLy+OyUObm5q5duxYMBhsaGl588cXz58/TEkUAAEcZwm4AOOREIpFKperu7k4mk1evXo3H49PT09lsVqvVUjQZi8USiUQymTSZTN3d3c3NzTqd7kCs6lKpVMLh8MbGhtfrbWtrUygUu2k2lTXs7u5Op9OhUOj+/fs6nU4kEtWW50wmk/l8XiwWe73enp4eq9X6xWyWQqFA61kODQ1JpdL+/v7BwcH+/v7d7SgAwGGAsBsADj+ZTNbX16dQKDiOW1lZuXLlSq0inlwudzgcfr/f5XKZzWatVqvRaPa7vU+BZVmRSNTc3Ozz+XY52i2VSs1m81e+8hWHwzE6Ojo8PLy4uCgUCqvVqk6nMxqNfr/f4XDodDqTyWQymR6ZqB2NRm/fvj01NcVx3IkTJy5cuEA1vAEAAGE3ABx+YrHYYrEIBIJcLjc/P7++vs6yLM/zSqVSp9N5PB6v1+v1erVaLS0d/8QNPgsZJgzDiEQip9MplUqbmpo2Lxu5M2KxWKVSdXZ2UuGXUChEGfBCodBqtTocjubmZpfLpdPpHhnfsyybSqVWVlaCwaBIJDp27FhfX197e3s8Hg8EAlKpVKFQqNVqzKoEgCML3R8AHBW0CPzx48drxUyEQiEVqyYHIrFkM5lM1t/fX6lUFArFF9fX3AGhUKjX65VKZWNj4+aSLxKJRCKRyGQyKuz9yPcWCgVKNK9Wqx0dHWfOnNHpdJVKZWZmZnV11WAwOJ1On8+HsBsAjix0fwBwVEgkklpJ6VpAuYNQm6oN7mXLdoqWrN/DDQoEAoqwVSrVQ/u4xYHiOC6bzQaDwdu3b4dCIYVCkU6nA4GASCQqlUp37txJJBIDAwMSieTA3dgAAOwhhN0AALArHMfFYrHZ2dnr168nEoljx44tLS0FAgGBQMCy7MTEhEQiOXXqFE3Q3O/GAgDsG4TdAHAUbX/YNZVKzc7OxuPxSqUyOzurVCoLhUIwGLx161YikdBqtRaLpaGhQSqV1rXBX77tH6Jisfjb3/72o48+mpyczGaz6XS6djSo1LfL5ZLJZGq1GqtUAsBRhrAbAGAr+Xx+dnY2EAiUy+V4PE51OQqFwvz8fLFYtNls1WrVarUevrB7+8rl8oMHD+7du5fJZEqlUiAQ2PyvtayVzevpAAAcQQi7AQC2otPpBgYG/H4/x3GFQiGXyzEMU1uXUaFQPK6yx9GhVCrfeuut3t5elmU5jnvoXwUCgdFobG5u3pe2AQA8OxB2AwBsRalUtrS0PHIOJSYIEqlUeuLEiRMnTux3QwAAnmlIswMAAAAAqDuMdgMAPBkGtreAgwMAsB0Y7QYAAAAAqDuE3QAAAAAAdYewGwAAAACg7hB2AwAAAADUHcJuAAAAAIC6Q9gNAAAAAFB3CLsBAAAAAOoOYTcAAAAAQN0h7AYAAAAAqDuE3QAAAAAAdYfF4QEADqpSqTQzM5NMJp1Op8lkUqvVYjF6dQCAZxRGuwEADqpisXj9+vWf/exno6OjkUikUqnsd4sAAOCxMC4CAEdRpVIpl8tra2vRaLRQKFQqFbFYbDabvV6vQqEQCoUCgWC/2/hkIpHIbDZvbGyEw2GdTudwOORy+V5tnOd5hmEymUwymdzY2IjFYgzDyGQyi8ViMpkMBoNEItmrzwIAOAoQdgPAUcHzPM/zlUqlVCrl8/l8Pj83N7e0tJRKpUqlkkgk8nq9MpnMarVqtdr9buy2iMVip9OZTCbX1tYUCkVvb69arWYYZpf3DBzHVSoVlmVLpVIsFguHw4uLi8FgkOd5pVLpdrubmpokEgnltByI+xMAgGcBwm4AOCo4jisWiwsLC0NDQ6FQKB6P22w2s9lss9lYll1fX5+YmJiYmBgcHPzKV75yIKJJsVjs8/mKxeLY2BjHcdlsVqfT7T69O5/PLy0tTU9Pj4yMMAyj0+k0Go3X661Wq6lU6je/+c3o6OgLL7zQ2tra0NBwIA4UAMCzAGE3ABx+NM6dzWYDgcDQ0NDHH3+cyWREIpHRaLRarRqNplKpcBw3NjY2NDSkUqlefvllgUDw7AeUIpHIZrOl02mpVJpKpRYWFkQikd1uF4lEQuFOpu5wHJfL5VZXV4eGhu7evTs6Omqz2Y4dO9bY2Oh2u6vVajAYvHr16tramtPp1Gq1DodjZx8EAHAEIewGgCOhUqmsrKz89Kc/HRoaCgaDZ86cefvttxsaGqxWq0QiqVarjY2NpVLpf//3fzc2NliWFQgEB6IqiEAg0Ov1Z86cmZ2d/fDDD6PR6GuvvSaXy3cWDZfL5fn5+aGhoffffz+RSLS0tJw+ffrSpUtarVahUPA8r9FoZmZm1tfXI5HIxsYG5X8DAMB2HICLCgDALpXL5UAgMDw8fOPGjeXlZYPB0NraeurUKbVaTXMQC4VCPp8XCATVapXjuM3vrVar5XI5m80mk8lqtcowTKlUqlarer1ep9Op1WqpVLqDJu1hwKpSqTo7O1mWDQaD09PTarW6ubm5sbFRJpM91Z0Dy7LJZHJ4ePjXv/71xMSE1Wo9fvz4wMBAe3u7SCTieb5cLisUCvpvjuMeOlBftLi4GAqFrFYrFTfc2YECADg0EHYDwOFXLBbv3r175cqV2dlZrVZ77ty53t5erVZbi0qz2ezk5OTS0pJcLlepVBKJpDZaXK1W0+n00tLS2NhYPp9nGGZjY6NUKvX09Pj9/ubm5n2PJuVyudfrLZVK4XB4dnb2n//5n998881XX33VYDDQDMttyufz6+vrn3322ZUrVwQCgdfrvXjxYmtrKx0KnueLxWI8Hl9aWkomk62trVqtdus8nJs3b/7yl798/vnnBwYGvF7vvh8oAID9hbAbAA65crmcTqfHx8fv3bsXi8VUKpVAIIhGo/fu3eN5vlqtJpPJ9fX1hYWFQqFw4cKF7u5ukUhUCyjj8fi1a9fC4bBIJDIYDAaDQSAQBIPBoaGhpaWly5cvUwAqEom22Z5MJrOwsBCNRnO53BMHjLcvEomsrKwEg8EHDx7IZLKNjY2Ojo7W1la3273NwiyhUOj+/ftU2sVsNvM8v7y8zLIswzBU+yUSidBfGhsb/X6/0+l8XCoLvfLOnTsjIyMdHR30fGCv9hQA4IBC2A0Ah1y5XM5kMtPT0+Pj4xzHlUqleDw+MTExNzdHtU1mZ2fX19cFAkFPT89bb73l9/s3D+JGIpH33nuPZdk33nijt7e3o6NjZGSkWq3+13/9VyaTMZvNOp1OqVRuP+xOJpPXr18fHh4OhUIU1O4JyvrY2NiIx+MffvjhlStXXnrppcuXL6vV6m2G3YFA4Pbt25FIRCgUKhSKdDp97do1Gi9PJpOxWGxubq5YLPb09PT29p48edJisTxutHtlZeXTTz8dHh5eWVnJ5XJ7tY8AAAcawm4AOOTi8XgwGMxkMgKBQKPR2O32lpYWk8kkFAppWZy2tjae5yUSid1ub29vNxqNVMaEspmz2Ww0Gk0kEmNjYzabrbu722g0NjQ0yOXytbW1QCAQCoUaGhpkMtk226NUKltbW0Ui0cbGxh6uK1mtViuVytTUVDKZbGhocLlcJ0+e7Ojo0Gg0T3wvJZpHo9H5+fl0Oi2Xyz0eT1tbm8fjUSqVDMO43W6GYc6ePSsWi+12u9vt1mg0jxzqLpVKmUwmFAotLy+n0+m92jsAgEMAYTcAHHKJRILGXMVisU6na2hoaG9vN5lMDMOIxWKFQmG322nNxYdGrCnsLpfLPM/ncrnl5eVYLMbzvFqtNpvNMpmMZVkq6PFU0bNSqWxvb7fZbJlMZk+STChozufziUSCZdnV1dWOjo7e3t4zZ874/f7thN0kkUgEg8FsNqtUKn0+X1dXl8fjUSgUDMPodDpKsHnicjyFQiEUCkUikWw2S4eO7H43AQAOOoTdAHDI0bKUHMfJZDKHw+Hz+VpaWsxmM8MwQqFQJBIplUqxWPzFsVuBQCCVSj0ezx//8R9ns1mHw9He3i4QCHK5XDweL5VKUqnU4XBYrdanKhgikUiMRqNaraaodPc7yHEcy7JTU1NDQ0Mikeib3/xmU1OT1+u1Wq0qlWr72S+1A6VQKFpbW3t7e+12O43iS6VSqVS6nRH9jY2NGzduVCqVy5cvJxKJpaWlXewZAMChgrAbAA4/Gp2VSqUmk8nhcDgcDgq7H1Iul4vFokQikclklGcikUhsNtsLL7xQLpelUqlcLs/+f+3dSXMa1xrGcehuMTXQjAIxaCIymmVJCztJJatUKovskk2qss5nybdJZZNlslBVItuJ7apIllQRQgZkg8wogZuhgbs4dVW+ljyL6Br/fwstEMPpXj0c3vO+9fqjR48ODw/NZnM4HJ6YmAiHw28UuxVFef0d6Nfx9OnTx48f12q1QqGwsLDw5ZdfhsNhn8/3pu9zNiHIarXG4/Hp6WnxI8CzzxGtAw3D6HQ6iqKIGyX+ZRhGo9E4Pj7O5/PRaHRtbW1jY+NSLhAAhgOxG8CQU1XV5/NZrVZZllVVtdvtL+q/Ua/XM5mMx+MRpcyCxWIJBAJPnz6t1+vFYlHX9Tt37ty+fdvv96+uri4tLUUikeey6b+sUqn89ttvDx8+nJmZWVhYiEQioiD7TTkcDr/fX6vVxC8ADofj/I3q9/uGYYiIr2laLBY7i92NRmN7ezufz8/OzoZCIXHD3/XaAGCIELsBDDlN08bGxrxer81mEzu150s7dF0XBwq3traSyaQYXSn2sEUGbbfbYiu3WCxmMplSqZRIJBKJRDgcvtyt6zciOrEcHx8/ePCg1Wp99tln165dc7vdbzeiMhAITE9Pi9mToqhdzBI6+6xWq1WpVNLpdLlcbrfbU1NT0WjUZDL1+30xaiedTrfb7bm5OZ/PJ3qfm//r0q4ZAN5bxG4AQ87r9Y6Pj0cikf39/Xq9XqvVzveQrtVqt27d2tzc/Ouvv7744ouVlRWXy/Vs6Uir1SqVSkdHR9lsVhw69Hg852sw/mW9Xq9cLh8dHeXzeb/fv7KyMjk5+dYZNxqNrqyspFKpWq1WLpcrlYqoej/7rGq1urOz89NPP1Wr1WQyqWlar9eTZbnX64mfAgqFgsPhiEajLpdLjBYCAJwhdgMYciMjIx6PZ319vdFoHB4e7uzsbGxsjI+P+3y+er1+cnJSqVSePHmSzWYlSbpx48bs7Oz5AgmbzRYKhRRF8Xg8wWAwn88/evTo9u3bmqZ1u91QKHQlIxgNw8hkMtlsdnR0dHJy0ufzicYjb0ok9Vgstr6+vre3t7Ozc+/ePZPJdP36dVVVe71erVarVqsi34+MjMzMzMzPz5+Ny+l0Oru7u6lUKhAIRKNRTdMoLwGA84jdAIaf3W7/9NNPzWZzKpW6d++eYRjz8/Pz8/O5XO7w8HB3d7dWq8Xj8Zs3b3799dehUMhutz+3Z+x2u51OZyKR6Pf7lUollUr9+OOP29vbFotFxPorid2dTieVSmUyGZGD366k+0w0GnU6nf/880+1Wv39998PDg4ajYbb7e50Oul0+uDgIJfL2e32b7755uOPP04kEqqqitjdbrfv3r2bSqW+/fbbpaUlh8PRarUu6RIBYHgQuwEMObPZrChKMBi8fv36d999VygUTCaTLMu5XK7dbgeDwXA4rKrq6OjoxMREIBCw2WyiHFlUTlcqlWw2KzoJOp1Oi8Xicrn8fr+qqrqu3717NxgMLi0tvbKh9SBIkuTxeGKx2LVr1+Lx+DtWvEiS5HA4bt68qWna3t6emOheq9UMwwgEAqJPotfrXVhYiMVidrtdbGmXy+VsNptOp7e3t+12+/379xVF6XQ6uq7//fff7Xb7/v37Vqs1mUzOzs4mk0lVVS/p6gHgPUPsBjD8ZFn2er2qqkaj0Vwut7+/XywWa7Way+WKRCJzc3Pj4+NOp/O52Nrr9U5OTh4+fPjHH3+oqmqz2WRZFm0E3W63qqqdTufBgweTk5NXtbkry3IgEJBl+aOPPhLHQN/xDa1W6+rqaiKRSCaTmUwmn8/rut7v9+Px+FkvcNP/frs4PT0tFAqnp6flcvnOnTtbW1smk0mcyDw4ODAMY39/X9SFS5I0MTFB7AbwwSJ2A/hQyLLsdDrj8bimac1ms91uixbdXq/3wq6CnU5nf39/c3Pz119/dbvdNpttbW1tcXFRzI03DKPb7SqKoijKVXXqUBRlenq61WqJKpe3a2Byns1mE7Xvuq6Lxi9Op9PpdF7Ys8Xn883Pz3///fdfffWVxWIRRzBPTk7K5fLPP//85MmTtbW1zz//PJlMTk1NkbkBfMiI3QA+FLIs2+12u91+4ayc80SJRS6X29vb83q9hUKh0WiYTKZms3l6etpsNiVJCgQCfr//qk4QKooSCoUu/W0tFkswGAwGg6/zZJfL5XQ6I5HIsw8WCoXDw8PNzU1ZlmOx2PLy8tzc3GvedgAYVsRuALiYoihiDqXL5fJ6vTMzM6FQyGw2F4vFg4ODSqVit9vX1taWl5ffrn/IMDnb7xc90XVdL5VKuq6LLijFYrHdbl/pAgHg6hG7AeBisiyHQqFkMrm+vi4amOzs7ORyOTEcXlXV1dVV0XBQnMK86vVemWevvdlsVqvVx48fHx8f22y2qakpSZJKpVI+n7darZqmXW2ncwC4QsRuALiYoiijo6PLy8vdbndra2tjY6PRaIj2JpIkzc7OLi8v37hxIxaLXUn3wP9PtVpta2tLHMccGxsTjRfL5fLu7q5hGAsLC8RuAB8sYjcAXMxsNlssFr/fv7i46HQ6PR5PvV7vdru9Xs9isSSTyenp6bGxsXfslj1krFZrMBgU31jOHlQURRTqMEYHwIeM2A0ALyPaesRisU8++UQULou/sixLkkSOfI6maYuLi+IWPUeSpMvqtQIA7yNiNwC8jNlslmX52Xh9lik/5HruFyFbA8CLELsB4M2QtgEAb4E9CQAAAGDgiN0AAADAwBG7AQAAgIEjdgMAAAADR+wGAAAABu7VnUxarVa5XL5169a/sBoAAADg/1+pVEqn07qu93q913zJq2O3ruv5fP6XX375888/3215AAAAwDBoNpvpdFpML37Nl7w6dne7XV3Xj46OKpXKuy0PAAAAGAaGYZycnBiGcTm73RaLxe12N5tNk8nUbrfb7fYlrBEAAAB4/0mSpKqqyWSy2+2vM6D34tgtSZLFYllZWfnhhx8Mw7jkNQIAAADDYmlpSdO0VybvF8ZuSZJmZmZsNlu/3x/A8gAAAIBh4PP5VFWVZfnlT3tZkYmmaSMjI5e6KgAAAGCojIyMKMqrD0ya2cwGAAAABo1xOQAAAMDAEbsBAACAgSN2AwAAAANH7AYAAAAGjtgNAAAADByxGwAAABg4YjcAAAAwcMRuAAAAYOCI3QAAAMDAEbsBAACAgSN2AwAAAANH7AYAAAAGjtgNAAAADNx/ADCbyhe9pBBTAAAAAElFTkSuQmCC;" vertex="1" parent="1">
          <mxGeometry x="257.16" y="481" width="367.68" height="100" as="geometry" />
        </mxCell>
      </root>
    </mxGraphModel>
  </diagram>
</mxfile>
